<svg xmlns="http://www.w3.org/2000/svg" width="215.544" height="131.304" viewBox="0 0 215.544 131.304">
  <g id="Group_2145" data-name="Group 2145" transform="translate(-570.228 -1052.195)">
    <g id="Group_825" data-name="Group 825" transform="translate(570.228 1052.195)">
      <path id="Path_680" data-name="Path 680" d="M270.585,516.367c-1.718-3.18.237-7.074,2.47-9.909s4.969-5.783,4.909-9.4c-.085-5.191-5.593-8.255-9.994-11.007A48.8,48.8,0,0,1,259,478.842a13.106,13.106,0,0,1-2.759-3.693,14.991,14.991,0,0,1-.826-6.561q.284-11.12,1.1-22.2" transform="translate(-224.587 -399.183)" fill="none" stroke="#232323" stroke-miterlimit="10" stroke-width="4"/>
      <path id="Path_682" data-name="Path 682" d="M282.894,638.229a8.092,8.092,0,0,0,15.282-3.312,7.988,7.988,0,0,0-.528-3.284,8.1,8.1,0,0,0-15.142.088l5.056,4.112L282,634.538A8,8,0,0,0,282.894,638.229Z" transform="translate(-244.903 -536.639)" fill="#c4c923"/>
      <path id="Path_688" data-name="Path 688" d="M285.78,654.956a8.092,8.092,0,0,0,15.282-3.312,7.989,7.989,0,0,0-.528-3.284,8.1,8.1,0,0,0-1.775,1.583,31.141,31.141,0,0,1-2.167,2.877c-1.656,1.623-4.327,2.3-6.705,2.366A34.722,34.722,0,0,1,285.78,654.956Z" transform="translate(-247.789 -553.367)" opacity="0.1"/>
      <path id="Path_683" data-name="Path 683" d="M277.8,557.605a8.1,8.1,0,0,0,2.567-15.881l.043,3.334-1.822-3.627h-.021a8.1,8.1,0,0,0-.755,16.176Z" transform="translate(-235.813 -471.731)" fill="#c4c923"/>
      <ellipse id="Ellipse_127" data-name="Ellipse 127" cx="107.772" cy="4.969" rx="107.772" ry="4.969" transform="translate(0 121.367)" fill="rgba(35,35,35,0.1)"/>
      <path id="Path_689" data-name="Path 689" d="M239.607,544.86l-31.231,6.388-.71-.071-27.446-2.768v-34.78l33.6-5.678,24.37,2.839.007.154,0,.076Z" transform="translate(-137.58 -422.949)" fill="#5fbd66"/>
      <path id="Path_690" data-name="Path 690" d="M328.161,554.517l-31.231,6.388-.71-.071V525.178l30.529-4.578Z" transform="translate(-226.134 -432.605)" opacity="0.1"/>
      <path id="Path_692" data-name="Path 692" d="M384.607,550.86l-31.231,6.388-.71-.071-27.446-2.768v-34.78l33.6-5.678,24.37,2.839.007.154,0,.076Z" transform="translate(-248.272 -427.529)" fill="#ea4542"/>
      <path id="Path_669" data-name="Path 669" d="M938.935,680.384c.71-1.3-.095-2.9-1.013-4.065s-2.037-2.366-2.013-3.854c.033-2.129,2.293-3.386,4.1-4.514a20.066,20.066,0,0,0,3.679-2.96,5.394,5.394,0,0,0,1.133-1.514,6.182,6.182,0,0,0,.338-2.693q-.118-4.557-.45-9.1" transform="translate(-744.096 -555.901)" fill="#232323" stroke="#232323" stroke-miterlimit="10" stroke-width="4"/>
      <path id="Path_670" data-name="Path 670" d="M966.193,640.779a3.327,3.327,0,0,0-1.656-2.721l-.743,1.472.021-1.779a3.32,3.32,0,1,0,2.366,3.028Z" transform="translate(-762.146 -545.161)" fill="#c4c923"/>
      <path id="Path_671" data-name="Path 671" d="M942.4,730.42a3.312,3.312,0,1,1,.159-2.674l-2.073,1.687,2.281-.53A3.312,3.312,0,0,1,942.4,730.42Z" transform="translate(-744.275 -612.325)" fill="#c4c923"/>
      <path id="Path_672" data-name="Path 672" d="M944.455,697.285a3.312,3.312,0,0,1-3.469-3.163,3.265,3.265,0,0,1,.286-1.512,3.327,3.327,0,0,1,2.129-1.841l-.017,1.37.752-1.491h0a3.322,3.322,0,0,1,.31,6.637Z" transform="translate(-747.969 -585.647)" fill="#c4c923"/>
      <path id="Path_673" data-name="Path 673" d="M978.526,674.612a3.316,3.316,0,1,1,1.467-6.2l-.587,1.609,1.207-1.159a3.312,3.312,0,0,1,1.074,2.293,3.238,3.238,0,0,1-.085.913A3.312,3.312,0,0,1,978.526,674.612Z" transform="translate(-773.98 -568.347)" fill="#c4c923"/>
      <path id="Path_674" data-name="Path 674" d="M965.866,647.5c-.767.085-1.512.324-2.281.372a2.483,2.483,0,0,1-2.1-.736,10.5,10.5,0,0,1-.615-1.079,2.366,2.366,0,0,0-.835-.788,3.312,3.312,0,1,0,6.208,2.205C966.114,647.48,965.989,647.489,965.866,647.5Z" transform="translate(-762.265 -551.008)" opacity="0.1"/>
      <path id="Path_675" data-name="Path 675" d="M978.5,680.732A3.312,3.312,0,0,1,975.342,676a2.458,2.458,0,0,1,.667.67,10.692,10.692,0,0,0,.658,1.1,2.708,2.708,0,0,0,2.2.769c.8-.038,1.573-.263,2.366-.336.109,0,.223-.019.334-.021A3.312,3.312,0,0,1,978.5,680.732Z" transform="translate(-773.954 -574.467)" opacity="0.1"/>
      <path id="Path_676" data-name="Path 676" d="M944.455,703.625a3.312,3.312,0,0,1-3.469-3.163,3.265,3.265,0,0,1,.286-1.512,2.727,2.727,0,0,1,.71.674c.258.364.419.783.71,1.119a3.067,3.067,0,0,0,2.352.823c.849-.021,1.614-.22,2.432-.281a3.327,3.327,0,0,1-3.021,2.34Z" transform="translate(-747.969 -591.987)" opacity="0.1"/>
      <path id="Path_677" data-name="Path 677" d="M942.111,737.221a3.319,3.319,0,1,1-6.055-2.721,3.444,3.444,0,0,1,.729.651,13.131,13.131,0,0,0,.89,1.183,4.132,4.132,0,0,0,2.749.965A14.236,14.236,0,0,0,942.111,737.221Z" transform="translate(-743.986 -619.126)" opacity="0.1"/>
      <path id="Path_678" data-name="Path 678" d="M927.54,762.078s2.619-.08,3.409-.643,4.022-1.235,4.228-.331,3.939,4.5.98,4.51-6.876-.473-7.664-.946S927.54,762.078,927.54,762.078Z" transform="translate(-737.708 -639.098)" fill="#232323" stroke="#232323" stroke-width="1"/>
      <path id="Path_679" data-name="Path 679" d="M936.209,769.84c-2.958.024-6.876-.473-7.663-.946-.6-.364-.84-1.677-.918-2.283h-.088s.166,2.113.946,2.6,4.7.965,7.664.946c.854,0,1.15-.312,1.133-.762C937.172,769.664,936.846,769.835,936.209,769.84Z" transform="translate(-737.708 -643.639)" opacity="0.2"/>
      <path id="Path_681" data-name="Path 681" d="M224.731,419.8a8.094,8.094,0,0,1,4.041-6.625l1.812,3.584-.054-4.339a8.1,8.1,0,1,1-5.8,7.387Z" transform="translate(-201.177 -373)" fill="#c4c923"/>
      <path id="Path_684" data-name="Path 684" d="M194.684,502.334a8.1,8.1,0,1,0-3.577-15.142l1.42,3.921-2.931-2.832a8.059,8.059,0,0,0-2.626,5.588,7.9,7.9,0,0,0,.206,2.229A8.094,8.094,0,0,0,194.684,502.334Z" transform="translate(-172.348 -429.536)" fill="#c4c923"/>
      <path id="Path_685" data-name="Path 685" d="M226.375,436.242c1.869.206,3.686.786,5.56.9a6.045,6.045,0,0,0,5.12-1.789,25.246,25.246,0,0,0,1.5-2.636,5.745,5.745,0,0,1,2.04-1.919,8.1,8.1,0,1,1-15.143,5.373C225.765,436.187,226.072,436.209,226.375,436.242Z" transform="translate(-201.733 -387.282)" opacity="0.1"/>
      <path id="Path_733" data-name="Path 733" d="M1.052-7.563l9.215.715V28.509L1.075,27.5Z" transform="translate(50.066 98.808)" fill="#fefefe"/>
      <path id="Path_686" data-name="Path 686" d="M195.41,517.3a8.1,8.1,0,0,0,7.7-11.546,5.988,5.988,0,0,0-1.628,1.628,26.253,26.253,0,0,1-1.6,2.676,6.626,6.626,0,0,1-5.368,1.879c-1.954-.088-3.84-.646-5.785-.823-.27-.024-.544-.043-.816-.05A8.094,8.094,0,0,0,195.41,517.3Z" transform="translate(-173.075 -444.499)" opacity="0.1"/>
      <path id="Path_687" data-name="Path 687" d="M278.921,573.047a8.094,8.094,0,0,0,7.765-11.4,6.546,6.546,0,0,0-1.711,1.656,27.746,27.746,0,0,1-1.758,2.728,7.483,7.483,0,0,1-5.73,2.009c-2-.043-3.935-.535-5.927-.689a8.1,8.1,0,0,0,7.361,5.693Z" transform="translate(-236.933 -487.173)" opacity="0.1"/>
      <path id="Path_740" data-name="Path 740" d="M1.147-7.945l9.193.805V28.217L1.147,27.211Z" transform="translate(82.172 100.519)" fill="#fefefe"/>
      <g id="Group_833" data-name="Group 833" transform="translate(51.097 87.362)">
        <path id="Path_752" data-name="Path 752" d="M-7.606-8.991l3.659.723L-17.564-4.725l-4.474-.362Z" transform="translate(22.038 8.991)" fill="#fff"/>
      </g>
      <path id="Path_691" data-name="Path 691" d="M238.2,511.019l-.009.007-30.522,4.5-27.446-1.893,33.6-5.678,24.37,2.839.007.154Z" transform="translate(-137.58 -422.949)" opacity="0.05"/>
      <path id="Path_751" data-name="Path 751" d="M-.059-8.165,9.592-9.61V25.174L.251,27.135Z" transform="translate(115.98 100.371)" fill="#fefefe"/>
      <path id="Path_693" data-name="Path 693" d="M473.161,560.517l-31.231,6.388-.71-.071V531.178l30.529-4.578Z" transform="translate(-336.827 -437.186)" opacity="0.2"/>
      <path id="Path_694" data-name="Path 694" d="M383.2,517.019l-.009.007-30.522,4.5-27.446-1.893,33.6-5.678,24.37,2.839.007.154Z" transform="translate(-248.272 -427.529)" opacity="0.05"/>
      <path id="Path_698" data-name="Path 698" d="M460.215,469.954l-16.3,3.336-.371-.038-14.324-1.446V453.655l17.534-2.965,12.72,1.483,0,.08v.038Z" transform="translate(-327.666 -379.236)" fill="#ea4542"/>
      <path id="Path_755" data-name="Path 755" d="M-6.334-9.672l3.668.434L-17.353-6.4l-4.617-.326Z" transform="translate(128.529 81.466)" fill="#fff"/>
      <path id="Path_699" data-name="Path 699" d="M506.431,475l-16.3,3.336-.371-.038V459.69L505.7,457.3Z" transform="translate(-373.882 -384.282)" opacity="0.2"/>
      <path id="Path_754" data-name="Path 754" d="M13.46-1.751l-4.3.669L-4.332-2.368l4.1-.751Z" transform="translate(112.837 75.641)" fill="#fff"/>
      <path id="Path_748" data-name="Path 748" d="M.72-4.542l5.8.354v16.1l-5.8-.506Z" transform="translate(105.31 81.657)" fill="#fefefe"/>
      <path id="Path_732" data-name="Path 732" d="M293.607,406.86l-31.231,6.388-.71-.071-27.446-2.768v-34.78l33.6-5.678,24.37,2.839.007.154,0,.076Z" transform="translate(-182.116 -316.18)" fill="#ea4542"/>
      <g id="Group_827" data-name="Group 827" transform="translate(59.867 54.47)">
        <path id="Path_753" data-name="Path 753" d="M33.15-.217l-9.7,1.6L-3.647-.991,5.333-2.23Z" transform="translate(7.982 3.829)" fill="#fff"/>
        <path id="Path_752-2" data-name="Path 752" d="M8.737-8.991,16.53-7.908l-29,5.316-9.5-.671Z" transform="translate(21.97 8.991)" fill="#fff"/>
      </g>
      <path id="Path_701" data-name="Path 701" d="M275.215,320.954l-16.3,3.334-.372-.035-14.324-1.446V304.655l17.535-2.965,12.72,1.483,0,.08v.038Z" transform="translate(-186.437 -265.49)" fill="#ea4542"/>
      <path id="Path_702" data-name="Path 702" d="M321.431,326l-16.3,3.334-.371-.036V310.69L320.7,308.3Z" transform="translate(-232.653 -270.536)" opacity="0.2"/>
      <path id="Path_703" data-name="Path 703" d="M274.479,303.292l0,0-15.93,2.347-14.324-.989,17.535-2.965,12.72,1.483,0,.08Z" transform="translate(-186.437 -265.49)" opacity="0.05"/>
      <path id="Path_704" data-name="Path 704" d="M396.215,317.954l-16.3,3.334-.371-.035-14.324-1.446V301.655l17.534-2.965,12.72,1.483,0,.08v.038Z" transform="translate(-278.808 -263.2)" fill="#5fbd66"/>
      <path id="Path_762" data-name="Path 762" d="M12.722-1.858l-4.3.669L-5.3-2.549l4.156-.709Z" transform="translate(70.276 40.494)" fill="#fff"/>
      <path id="Path_763" data-name="Path 763" d="M-10.391-9.672l3.668.434L-21.474-6.363l-5.81-.4Z" transform="translate(89.288 46.212)" fill="#fff"/>
      <path id="Path_705" data-name="Path 705" d="M442.431,323l-16.3,3.334-.371-.035V307.69L441.7,305.3Z" transform="translate(-325.025 -268.246)" opacity="0.1"/>
      <path id="Path_706" data-name="Path 706" d="M395.479,300.292l0,0-15.93,2.347-14.324-.989,17.534-2.965,12.72,1.483,0,.08Z" transform="translate(-278.808 -263.2)" opacity="0.05"/>
      <path id="Path_764" data-name="Path 764" d="M12.722-1.858l-4.3.669L-5.3-2.549l4.156-.709Z" transform="translate(98.669 39.784)" fill="#fff"/>
      <path id="Path_765" data-name="Path 765" d="M-10.391-9.672l3.668.434L-21.474-6.363l-5.81-.4Z" transform="translate(117.681 45.502)" fill="#fff"/>
      <path id="Path_737" data-name="Path 737" d="M0,.516,4.18,0l.3,17.328L.31,18.256Z" transform="matrix(1, 0.017, -0.017, 1, 107.888, 38.317)" fill="#e4e4e4"/>
      <path id="Path_738" data-name="Path 738" d="M.719-4.542l5.8.354L6.45,14.233.718,13.67Z" transform="translate(89.696 43.327)" fill="#fefefe"/>
      <path id="Path_707" data-name="Path 707" d="M432.215,240.954l-16.3,3.334-.371-.036-14.324-1.446V224.655l17.535-2.965,12.72,1.483,0,.08v.038Z" transform="translate(-306.291 -204.418)" fill="#ea4542"/>
      <path id="Path_708" data-name="Path 708" d="M478.431,246l-16.3,3.334-.371-.036V230.69L477.7,228.3Z" transform="translate(-352.507 -209.464)" opacity="0.2"/>
      <path id="Path_709" data-name="Path 709" d="M431.479,223.292l0,0-15.93,2.347-14.324-.989,17.535-2.965,12.72,1.483,0,.08Z" transform="translate(-306.291 -204.418)" opacity="0.05"/>
      <path id="Path_743" data-name="Path 743" d="M0,.516,4.18,0l.3,17.328L.31,18.256Z" transform="matrix(1, 0.017, -0.017, 1, 77.839, 39.027)" fill="#e4e4e4"/>
      <path id="Path_725" data-name="Path 725" d="M305.215,243.954l-16.3,3.334-.371-.036-14.324-1.446V227.655l17.535-2.965,12.72,1.483,0,.08v.038Z" transform="translate(-209.339 -206.708)" fill="#5fbd66"/>
      <path id="Path_726" data-name="Path 726" d="M351.431,249l-16.3,3.334-.371-.035V233.69L350.7,231.3Z" transform="translate(-255.555 -211.754)" opacity="0.1"/>
      <path id="Path_758" data-name="Path 758" d="M12.722-1.858l-4.3.669L-5.3-2.549l4.156-.709Z" transform="translate(106.95 21.566)" fill="#fff"/>
      <path id="Path_759" data-name="Path 759" d="M-10.391-9.672l3.668.434L-21.474-6.363l-5.81-.4Z" transform="translate(125.962 27.284)" fill="#fff"/>
      <path id="Path_727" data-name="Path 727" d="M304.479,226.292l0,0-15.93,2.347-14.324-.989,17.535-2.965,12.72,1.483,0,.08Z" transform="translate(-209.339 -206.708)" opacity="0.05"/>
      <path id="Path_760" data-name="Path 760" d="M12.722-1.858l-4.3.669L-5.3-2.549l4.156-.709Z" transform="translate(77.374 22.276)" fill="#fff"/>
      <path id="Path_761" data-name="Path 761" d="M-10.391-9.672l3.668.434L-21.474-6.363l-5.81-.4Z" transform="translate(96.386 27.994)" fill="#fff"/>
      <path id="Path_736" data-name="Path 736" d="M0,.516,4.18,0l.3,17.328L.31,18.256Z" transform="matrix(1, 0.017, -0.017, 1, 85.884, 21.045)" fill="#e4e4e4"/>
      <path id="Path_728" data-name="Path 728" d="M341.215,167.954l-16.3,3.336-.371-.038-14.324-1.446V151.655l17.535-2.965,12.72,1.484,0,.08v.038Z" transform="translate(-236.822 -148.69)" fill="#ea4542"/>
      <path id="Path_729" data-name="Path 729" d="M387.431,173l-16.3,3.336-.371-.038V157.69L386.7,155.3Z" transform="translate(-283.038 -153.736)" opacity="0.2"/>
      <path id="Path_730" data-name="Path 730" d="M340.479,150.292l0,0-15.93,2.347-14.324-.989,17.535-2.965,12.72,1.484,0,.08Z" transform="translate(-236.822 -148.69)" opacity="0.05"/>
      <path id="Path_742" data-name="Path 742" d="M.72-4.542l5.8.407V14.34l-5.8-.58Z" transform="translate(61.303 43.977)" fill="#fefefe"/>
      <path id="Path_735" data-name="Path 735" d="M.72-4.542l5.8.407V14.34l-5.8-.58Z" transform="translate(68.401 25.758)" fill="#fefefe"/>
      <path id="Path_739" data-name="Path 739" d="M.935-7.945l9.47.68-.327,35.115L.869,26.91Z" transform="translate(58.96 68.105)" fill="#fefefe"/>
      <path id="Path_744" data-name="Path 744" d="M0,.667,4.1,0l.317,18.183-4.1.861Z" transform="matrix(1, 0.017, -0.017, 1, 115.584, 19.627)" fill="#e4e4e4"/>
      <path id="Path_745" data-name="Path 745" d="M.72-4.542l5.8.407V14.34l-5.8-.58Z" transform="translate(97.976 25.049)" fill="#fefefe"/>
      <path id="Path_746" data-name="Path 746" d="M0,.663,4.311,0l.473,18.1-4.173.928Z" transform="matrix(1, 0.017, -0.017, 1, 94.114, 2.282)" fill="#e4e4e4"/>
      <path id="Path_747" data-name="Path 747" d="M.72-4.542l5.8.407V14.34l-5.8-.58Z" transform="translate(76.918 7.777)" fill="#fefefe"/>
      <path id="Path_749" data-name="Path 749" d="M0,.745,4.176,0l.266,18.12-4.123.925Z" transform="matrix(1, 0.017, -0.017, 1, 122.088, 73.815)" fill="#e4e4e4"/>
      <path id="Path_750" data-name="Path 750" d="M-.059-8.165,9.592-9.61V25.174L.251,27.135Z" transform="translate(91.373 67.72)" fill="#fefefe"/>
    </g>
    <ellipse id="Ellipse_119" data-name="Ellipse 119" cx="13.564" cy="16.322" rx="13.564" ry="16.322" transform="translate(720.217 1136.023)" fill="#232323"/>
    <rect id="Rectangle_506" data-name="Rectangle 506" width="5.384" height="8.884" transform="translate(735.338 1164.398)" fill="#232323"/>
    <rect id="Rectangle_507" data-name="Rectangle 507" width="5.384" height="8.884" transform="translate(724.57 1164.398)" fill="#232323"/>
    <path id="Path_609" data-name="Path 609" d="M1.445,8.854c.868-.028,1.632-2.032,1.705-4.477S2.579-.027,1.711,0,.079,2.032.006,4.477.576,8.881,1.445,8.854Z" transform="translate(732.028 1174.58) rotate(-90)" fill="#232323"/>
    <path id="Path_610" data-name="Path 610" d="M1.442,8.839c.87-.029,1.637-2.031,1.714-4.472S2.59-.029,1.721,0,.083,2.031.006,4.472.572,8.868,1.442,8.839Z" transform="translate(721.16 1174.456) rotate(-90)" fill="#232323"/>
    <path id="Path_608" data-name="Path 608" d="M607.861,486.641c1.431-5.9-3.144-11.867-10.218-13.321s-13.969,2.151-15.4,8.053,3.257,8.079,10.332,9.534S606.43,492.544,607.861,486.641Z" transform="translate(141.978 649.768)" fill="#5fbd66"/>
    <path id="Path_611" data-name="Path 611" d="M9.291,5.975c5.2-.22,9.47-1.73,9.538-3.372S14.739-.193,9.539.027.069,1.756,0,3.4,4.092,6.2,9.291,5.975Z" transform="translate(722.719 1150.276) rotate(-150)" fill="#232323"/>
    <path id="Path_612" data-name="Path 612" d="M9.046,6.147c5.029-.106,9.133-1.568,9.167-3.263S14.2-.1,9.167.006.034,1.574,0,3.27,4.017,6.254,9.046,6.147Z" transform="matrix(-0.257, -0.967, 0.967, -0.257, 748.783, 1167.199)" fill="#232323"/>
  </g>
</svg>
