<svg xmlns="http://www.w3.org/2000/svg" width="278.878" height="137.685" viewBox="0 0 278.878 137.685">
  <g id="Group_1479" data-name="Group 1479" transform="translate(-18.467)">
    <rect id="Rectangle_492" data-name="Rectangle 492" width="0.82" height="2.461" transform="translate(111.656 73.092)" fill="#e5e5e5"/>
    <path id="Path_598" data-name="Path 598" d="M460.014,526.674h-.82v-5.243h.82Zm0-10.487h-.82v-5.244h.82Zm0-10.487h-.82v-5.243h.82Zm0-10.487h-.82V489.97h.82Zm0-10.487h-.82v-5.244h.82Z" transform="translate(-347.538 -398.687)" fill="#e5e5e5"/>
    <rect id="Rectangle_493" data-name="Rectangle 493" width="0.82" height="2.461" transform="translate(111.656 133.231)" fill="#e5e5e5"/>
    <rect id="Rectangle_494" data-name="Rectangle 494" width="0.82" height="2.461" transform="translate(201.481 73.092)" fill="#e5e5e5"/>
    <path id="Path_599" data-name="Path 599" d="M679.014,526.674h-.82v-5.243h.82Zm0-10.487h-.82v-5.244h.82Zm0-10.487h-.82v-5.243h.82Zm0-10.487h-.82V489.97h.82Zm0-10.487h-.82v-5.244h.82Z" transform="translate(-476.713 -398.687)" fill="#e5e5e5"/>
    <rect id="Rectangle_495" data-name="Rectangle 495" width="0.82" height="2.461" transform="translate(201.481 133.231)" fill="#e5e5e5"/>
    <rect id="Rectangle_496" data-name="Rectangle 496" width="0.82" height="2.461" transform="translate(246.791 24.949)" fill="#e5e5e5"/>
    <path id="Path_600" data-name="Path 600" d="M789.484,457.352h-.82v-5.039h.82Zm0-10.078h-.82v-5.039h.82Zm0-10.078h-.82v-5.039h.82Zm0-10.078h-.82v-5.039h.82Zm0-10.078h-.82V412h.82Zm0-10.078h-.82v-5.039h.82Zm0-10.078h-.82v-5.039h.82Zm0-10.078h-.82v-5.039h.82Zm0-10.078h-.82v-5.039h.82Zm0-10.078h-.82v-5.039h.82Z" transform="translate(-541.873 -329.16)" fill="#e5e5e5"/>
    <rect id="Rectangle_497" data-name="Rectangle 497" width="0.82" height="2.461" transform="translate(246.791 133.231)" fill="#e5e5e5"/>
    <rect id="Rectangle_498" data-name="Rectangle 498" width="0.82" height="2.461" transform="translate(291.649 5.261)" fill="#e5e5e5"/>
    <path id="Path_601" data-name="Path 601" d="M898.852,429.031h-.82v-5.02h.82Zm0-10.041h-.82v-5.02h.82Zm0-10.041h-.82v-5.02h.82Zm0-10.041h-.82v-5.02h.82Zm0-10.041h-.82v-5.02h.82Zm0-10.041h-.82v-5.02h.82Zm0-10.041h-.82v-5.02h.82Zm0-10.041h-.82v-5.02h.82Zm0-10.041h-.82v-5.02h.82Zm0-10.041h-.82v-5.02h.82Zm0-10.041h-.82V323.6h.82Zm0-10.041h-.82v-5.02h.82Z" transform="translate(-606.383 -300.82)" fill="#e5e5e5"/>
    <rect id="Rectangle_499" data-name="Rectangle 499" width="0.82" height="2.461" transform="translate(291.649 133.231)" fill="#e5e5e5"/>
    <rect id="Rectangle_500" data-name="Rectangle 500" width="0.82" height="2.461" transform="translate(156.774 40.125)" fill="#e5e5e5"/>
    <path id="Path_602" data-name="Path 602" d="M570.014,479.059h-.82v-4.771h.82Zm0-9.542h-.82v-4.771h.82Zm0-9.542h-.82V455.2h.82Zm0-9.542h-.82v-4.771h.82Zm0-9.542h-.82v-4.771h.82Zm0-9.542h-.82V426.58h.82Zm0-9.542h-.82v-4.771h.82Zm0-9.542h-.82V407.5h.82Zm0-9.542h-.82v-4.771h.82Z" transform="translate(-412.421 -350.598)" fill="#e5e5e5"/>
    <rect id="Rectangle_501" data-name="Rectangle 501" width="0.82" height="2.461" transform="translate(156.774 133.231)" fill="#e5e5e5"/>
    <path id="Path_603" data-name="Path 603" d="M574.184,427.325l-226.567-.85a.85.85,0,0,1-.85-.85V295.46a.85.85,0,0,1,1.7,0V424.776l225.717.85a.85.85,0,0,1,0,1.7Z" transform="translate(-281.224 -289.641)" fill="#232323"/>
    <path id="Path_604" data-name="Path 604" d="M362.69,81.223,317.538,47.4,273,80.761l-1.019-1.36,45.555-34.121,44.938,33.659L407.131,30.07,407.31,30l45.045-18.149.635,1.577L408.125,31.5Z" transform="translate(-160.427 -6.988)" fill="#232323"/>
    <circle id="Ellipse_100" data-name="Ellipse 100" cx="5.099" cy="5.099" r="5.099" transform="translate(106.966 67.993)" fill="#5fbd66"/>
    <circle id="Ellipse_101" data-name="Ellipse 101" cx="5.099" cy="5.099" r="5.099" transform="translate(152.011 34.846)" fill="#5fbd66"/>
    <circle id="Ellipse_102" data-name="Ellipse 102" cx="5.099" cy="5.099" r="5.099" transform="translate(197.056 67.993)" fill="#f6f6f6"/>
    <circle id="Ellipse_103" data-name="Ellipse 103" cx="5.099" cy="5.099" r="5.099" transform="translate(197.056 67.937)" fill="#5fbd66"/>
    <circle id="Ellipse_104" data-name="Ellipse 104" cx="5.099" cy="5.099" r="5.099" transform="translate(242.102 18.698)" fill="#5fbd66"/>
    <circle id="Ellipse_105" data-name="Ellipse 105" cx="5.099" cy="5.099" r="5.099" transform="translate(287.147)" fill="#5fbd66"/>
    <ellipse id="Ellipse_106" data-name="Ellipse 106" cx="8.832" cy="2.773" rx="8.832" ry="2.773" transform="matrix(0.357, -0.934, 0.934, 0.357, 54.439, 106.797)" fill="#232323"/>
    <ellipse id="Ellipse_107" data-name="Ellipse 107" cx="13.254" cy="17.664" rx="13.254" ry="17.664" transform="translate(32.807 94.476)" fill="#232323"/>
    <rect id="Rectangle_502" data-name="Rectangle 502" width="5.366" height="9.615" transform="translate(38.011 126.004)" fill="#232323"/>
    <rect id="Rectangle_503" data-name="Rectangle 503" width="5.366" height="9.615" transform="translate(48.744 126.004)" fill="#232323"/>
    <ellipse id="Ellipse_108" data-name="Ellipse 108" cx="4.472" cy="1.677" rx="4.472" ry="1.677" transform="translate(38.012 134.053)" fill="#232323"/>
    <ellipse id="Ellipse_109" data-name="Ellipse 109" cx="4.472" cy="1.677" rx="4.472" ry="1.677" transform="translate(48.744 133.83)" fill="#232323"/>
    <path id="Path_605" data-name="Path 605" d="M257.117,494.617c-1.426-6.388,3.133-12.842,10.184-14.417s13.923,2.328,15.349,8.715-3.246,8.744-10.3,10.318S258.544,501,257.117,494.617Z" transform="translate(-228.191 -398.904)" fill="#c4c923"/>
    <ellipse id="Ellipse_112" data-name="Ellipse 112" cx="2.773" cy="8.832" rx="2.773" ry="8.832" transform="translate(18.467 105.605) rotate(-64.626)" fill="#232323"/>
    <ellipse id="Ellipse_113" data-name="Ellipse 113" cx="13.254" cy="17.664" rx="13.254" ry="17.664" transform="translate(166.162 90.93)" fill="#232323"/>
    <rect id="Rectangle_504" data-name="Rectangle 504" width="5.366" height="11.085" transform="translate(171.366 121.722)" fill="#232323"/>
    <rect id="Rectangle_505" data-name="Rectangle 505" width="5.366" height="11.085" transform="translate(182.099 121.722)" fill="#232323"/>
    <ellipse id="Ellipse_114" data-name="Ellipse 114" cx="1.677" cy="4.472" rx="1.677" ry="4.472" transform="translate(170.664 133.835) rotate(-65.664)" fill="#232323"/>
    <ellipse id="Ellipse_115" data-name="Ellipse 115" cx="1.677" cy="4.472" rx="1.677" ry="4.472" transform="translate(180.995 133.073) rotate(-64.102)" fill="#232323"/>
    <path id="Path_607" data-name="Path 607" d="M582.246,487.763c-1.426-6.388,3.133-12.842,10.184-14.417s13.922,2.328,15.349,8.715-3.246,8.744-10.3,10.318S583.673,494.151,582.246,487.763Z" transform="translate(-419.966 -394.861)" fill="#5fbd66"/>
    <ellipse id="Ellipse_116" data-name="Ellipse 116" cx="9.8" cy="3.076" rx="9.8" ry="3.076" transform="translate(186.787 101.223) rotate(-59)" fill="#232323"/>
    <ellipse id="Ellipse_117" data-name="Ellipse 117" cx="9.8" cy="3.076" rx="9.8" ry="3.076" transform="translate(159.397 122.321) rotate(-75.136)" fill="#232323"/>
  </g>
</svg>
