<svg xmlns="http://www.w3.org/2000/svg" width="249.532" height="175.807" viewBox="0 0 249.532 175.807">
  <g id="Group_1523" data-name="Group 1523" transform="translate(0 0)">
    <g id="Group_651" data-name="Group 651" transform="translate(169.838 98.684)">
      <ellipse id="Ellipse_119" data-name="Ellipse 119" cx="18.037" cy="23.681" rx="18.037" ry="23.681" transform="translate(27.912 19.137)" fill="#232323"/>
      <rect id="Rectangle_506" data-name="Rectangle 506" width="7.91" height="12.89" transform="translate(49.903 61.402)" fill="#232323"/>
      <rect id="Rectangle_507" data-name="Rectangle 507" width="7.91" height="12.89" transform="translate(34.084 61.402)" fill="#232323"/>
      <path id="Path_609" data-name="Path 609" d="M2.073,12.981c1.263-.046,2.386-2.99,2.51-6.574S3.784-.046,2.521,0,.135,2.99.011,6.575.811,13.028,2.073,12.981Z" transform="translate(45.334 77.123) rotate(-90)" fill="#232323"/>
      <path id="Path_613" data-name="Path 613" d="M627.371,284.431a8.23,8.23,0,1,0,0,16.46h0a8.23,8.23,0,1,0,0-16.46Z" transform="translate(-619.141 -276.115)" fill="#5fbd66"/>
      <path id="Path_610" data-name="Path 610" d="M2.069,12.956c1.265-.049,2.4-2.988,2.525-6.566S3.8-.048,2.537,0,.142,2.989.012,6.566.8,13,2.069,12.956Z" transform="translate(28.867 76.28) rotate(-90)" fill="#232323"/>
      <path id="Path_608" data-name="Path 608" d="M620,492.792c2.1-8.563-4.618-17.216-15.011-19.327s-20.521,3.12-22.623,11.684,4.785,11.722,15.177,13.832S617.895,501.355,620,492.792Z" transform="translate(-550.792 -472.997)" fill="#5fbd66"/>
      <path id="Path_611" data-name="Path 611" d="M13.587,8.709c7.616-.361,13.882-2.592,14-4.983S21.613-.311,14,.05.115,2.642,0,5.033,5.971,9.07,13.587,8.709Z" transform="matrix(-0.707, -0.707, 0.707, -0.707, 27.751, 42.404)" fill="#232323"/>
      <path id="Path_612" data-name="Path 612" d="M13.122,9.027c7.3-.179,13.269-2.342,13.325-4.832S20.629-.167,13.325.012.057,2.354,0,4.843,5.819,9.206,13.122,9.027Z" transform="matrix(-0.545, -0.839, 0.839, -0.545, 72.114, 58.102)" fill="#232323"/>
      <path id="iconmonstr-check-mark-10" d="M0,5.416l.567-.585,2.78,1.66,4.794-4.5.486.487-5.033,6.7Z" transform="translate(3.94 11.119)" fill="#fefefe"/>
    </g>
    <g id="Group_654" data-name="Group 654" transform="translate(0 0)">
      <g id="Group_648" data-name="Group 648">
        <path id="Path_588" data-name="Path 588" d="M271.926,203.25c-4.138,0-7.493,3.685-7.493,8.23s3.355,8.23,7.493,8.23H386.248c4.138,0,7.493-3.685,7.493-8.23s-3.355-8.23-7.493-8.23Z" transform="translate(-264.433 -203.25)" fill="#5fbd66"/>
        <path id="Path_591" data-name="Path 591" d="M271.926,291.25c-4.138,0-7.493,3.685-7.493,8.23s3.355,8.23,7.493,8.23H386.248c4.138,0,7.493-3.685,7.493-8.23s-3.355-8.23-7.493-8.23Z" transform="translate(-264.433 -255.21)" fill="#c4c923"/>
        <path id="Path_592" data-name="Path 592" d="M627.371,284.431a8.23,8.23,0,1,0,0,16.46h0a8.23,8.23,0,1,0,0-16.46Z" transform="translate(-477.807 -248.575)" fill="#5fbd66"/>
        <path id="Path_594" data-name="Path 594" d="M271.926,379.25c-4.138,0-7.493,3.685-7.493,8.23s3.355,8.23,7.493,8.23H386.248c4.138,0,7.493-3.685,7.493-8.23s-3.355-8.23-7.493-8.23Z" transform="translate(-264.433 -308.227)" fill="#303c42"/>
        <g id="Path_595" data-name="Path 595" transform="translate(-476.438 -301.408)" fill="none">
          <path d="M627.371,372.431a8.23,8.23,0,1,0,0,16.46h0a8.23,8.23,0,0,0,0-16.46Z" stroke="none"/>
          <path d="M 627.371337890625 374.430908203125 C 623.9359741210938 374.430908203125 621.14111328125 377.2257080078125 621.14111328125 380.6609802246094 C 621.14111328125 384.09619140625 623.9358520507812 386.8909301757812 627.371337890625 386.8909301757812 C 630.8065185546875 386.8909301757812 633.6012573242188 384.09619140625 633.6012573242188 380.6609802246094 C 633.6012573242188 377.2257080078125 630.8065185546875 374.430908203125 627.371337890625 374.430908203125 M 627.371337890625 372.430908203125 C 631.91650390625 372.430908203125 635.6012573242188 376.1156921386719 635.6012573242188 380.6609802246094 C 635.6012573242188 385.2063293457031 631.91650390625 388.8909301757812 627.371337890625 388.8909301757812 L 627.37109375 388.8909301757812 C 622.8257446289062 388.8909301757812 619.14111328125 385.2063293457031 619.14111328125 380.6609802246094 C 619.14111328125 376.1156921386719 622.8257446289062 372.430908203125 627.371337890625 372.430908203125 Z" stroke="none" fill="#5fbd66"/>
        </g>
        <path id="iconmonstr-check-mark-10-2" data-name="iconmonstr-check-mark-10" d="M0,5.416l.567-.585,2.78,1.66,4.794-4.5.486.487-5.033,6.7Z" transform="translate(145.25 38.501)" fill="#fefefe"/>
      </g>
      <g id="Group_653" data-name="Group 653" transform="translate(141.334 0)">
        <path id="Path_618" data-name="Path 618" d="M627.371,284.431a8.23,8.23,0,1,0,0,16.46h0a8.23,8.23,0,1,0,0-16.46Z" transform="translate(-619.141 -284.431)" fill="#5fbd66"/>
        <path id="iconmonstr-check-mark-10-3" data-name="iconmonstr-check-mark-10" d="M0,5.416l.567-.585,2.78,1.66,4.794-4.5.486.487-5.033,6.7Z" transform="translate(3.916 2.646)" fill="#fefefe"/>
      </g>
    </g>
  </g>
</svg>
