<svg xmlns="http://www.w3.org/2000/svg" xmlns:xlink="http://www.w3.org/1999/xlink" width="262.501" height="154.217" viewBox="0 0 262.501 154.217">
  <defs>
    <linearGradient id="linear-gradient" x1="0.5" y1="1" x2="0.5" gradientUnits="objectBoundingBox">
      <stop offset="0" stop-color="gray" stop-opacity="0.251"/>
      <stop offset="0.54" stop-color="gray" stop-opacity="0.122"/>
      <stop offset="1" stop-color="gray" stop-opacity="0.102"/>
    </linearGradient>
  </defs>
  <g id="Group_1524" data-name="Group 1524" transform="translate(0)">
    <path id="Path_192" data-name="Path 192" d="M189.561,69.607c7.427-6.611,19.086-7.969,29.7-7.44,33.333,1.66,63.417,17.749,89.45,35.95,9.408,6.591,18.7,13.693,24.815,22.766,12.46,18.473,8.757,44.064-8.557,59.283-5.889,5.177-13.029,9.154-20.36,12.666-13.034,6.255-27.1,11.28-41.892,12.714-10.547,1.017-21.227.191-31.716-1.233-29.3-3.972-58.062-12.76-82.17-27.8-10.583-6.6-20.538-14.791-24.9-25.471s-1.569-24.177,9.228-30.491c4.465-2.611,9.8-3.791,15.03-4.9,7.694-1.63,15.511-3.237,22.453-6.553,7.171-3.423,15.664-10.041,14.24-17.616C183.364,83.359,182.144,76.218,189.561,69.607Z" transform="translate(-98.296 -62.064)" fill="#5fbd66" opacity="0.1"/>
    <g id="Group_470" data-name="Group 470" transform="matrix(0.999, -0.035, 0.035, 0.999, 184.498, 25.089)">
      <path id="Path_435" data-name="Path 435" d="M5.514,3.793c0,.071,0,.143,0,.213a5.051,5.051,0,0,1-.1.816A3.372,3.372,0,0,1,3.364,7.494a2.041,2.041,0,0,1-.607.092C1.234,7.587,0,5.887,0,3.793S1.234,0,2.757,0C4.185,0,5.36,1.495,5.5,3.41,5.509,3.536,5.514,3.664,5.514,3.793Z" transform="translate(33.757 8.222)" fill="#131313"/>
      <path id="Path_436" data-name="Path 436" d="M3.478,3.094a5.036,5.036,0,0,1-.1.816A3.371,3.371,0,0,1,1.332,6.582C.568,6.23,0,4.911,0,3.337,0,1.494.779,0,1.741,0c.807,0,1.486,1.054,1.683,2.484C3.452,2.68,3.47,2.885,3.478,3.094Z" transform="translate(35.788 9.135)"/>
      <path id="Path_437" data-name="Path 437" d="M0,.72S7.462-.814,11.4.6c0,0,.58.29,0,.788,0,0,.549.58-.41.788l-3.808.234L0,1.674Z" transform="translate(25.424 2.9)" fill="#131313"/>
      <path id="Path_438" data-name="Path 438" d="M0,.617S6.389-.7,9.761.51c0,0,.5.249,0,.674,0,0,.47.5-.351.674l-3.26.2L0,1.434Z" transform="translate(26.73 3.197)"/>
      <path id="Path_439" data-name="Path 439" d="M10.447,3.068l-.5-.995S10.168,1.066,8.4.77A1.07,1.07,0,0,0,7.317,0a1.078,1.078,0,0,0-1.07.738C5.992.76,5.721.79,5.431.829L5.025,3l-.05-.1s.257-1.189-2.063-1.363A.863.863,0,0,0,3.109,1a1.034,1.034,0,0,0-1.1-.954A1.034,1.034,0,0,0,.912,1a.87.87,0,0,0,.231.584q-.326.031-.687.08L0,4.1l2.114.29,3.358-.5-.3-.595,1.914.263Z" transform="translate(23.558 3.04)" fill="#5fbd66"/>
      <path id="Path_440" data-name="Path 440" d="M10.447,3.068l-.5-.995S10.168,1.066,8.4.77A1.07,1.07,0,0,0,7.317,0a1.078,1.078,0,0,0-1.07.738C5.992.76,5.721.79,5.431.829L5.025,3l-.05-.1s.257-1.189-2.063-1.363A.863.863,0,0,0,3.109,1a1.034,1.034,0,0,0-1.1-.954A1.034,1.034,0,0,0,.912,1a.87.87,0,0,0,.231.584q-.326.031-.687.08L0,4.1l2.114.29,3.358-.5-.3-.595,1.914.263Z" transform="translate(23.558 3.04)" opacity="0.2"/>
      <path id="Path_441" data-name="Path 441" d="M.539,1.9S.207.042,1.741,0,2.778,2.7,2.778,2.7s1.161.249,1.244.7S0,3.98,0,3.98Z" transform="translate(26.335 2.003)" fill="#5fbd66"/>
      <path id="Path_442" data-name="Path 442" d="M7.3,4.332a3.825,3.825,0,0,1-3.648,3.98A3.825,3.825,0,0,1,0,4.332C0,2.135,1.654,0,3.669,0S7.3,2.134,7.3,4.332Z" transform="translate(16.884 9.404)" fill="#131313"/>
      <ellipse id="Ellipse_45" data-name="Ellipse 45" cx="2.902" cy="3.358" rx="2.902" ry="3.358" transform="translate(17.63 10.544)"/>
      <ellipse id="Ellipse_46" data-name="Ellipse 46" cx="3.648" cy="3.98" rx="3.648" ry="3.98" transform="translate(0.84 9.383)" fill="#131313"/>
      <path id="Path_443" data-name="Path 443" d="M1.62,0S-.08.083,0,1s1.451.249,1.451.249Z" transform="translate(9.087 3.869)" fill="#36334a"/>
      <path id="Path_444" data-name="Path 444" d="M15.427,5.389l.7-4.67s.166-.58-2.073-.58c0,0-7.172-.456-9,.29,0,0-2.114.788-5.058,4.851C0,5.279,15.137,5.637,15.427,5.389Z" transform="translate(9.421 0)" fill="#131313"/>
      <path id="Path_445" data-name="Path 445" d="M14.412,0,13.127,5.1l-.806-.02L8.507,4.987,0,4.78c-.024-.4,4-4.572,4-4.572Z" transform="translate(10.183 0.511)"/>
      <path id="Path_446" data-name="Path 446" d="M0,3.246.347,1.9S.016.042,1.55,0,2.586,2.7,2.586,2.7s1.057.227,1.226.644Z" transform="translate(18.691 2.252)" fill="#5fbd66" opacity="0.2"/>
      <path id="Path_447" data-name="Path 447" d="M39.291,6.944c-.249-2.4-1.8-2.923-1.8-2.923C36,3.938,35,9.618,35,9.618L23.517,10.655s.394-4.83-2.384-5.617-3.5,4.871-3.628,5.659S.757,10.613.3,10.281.01,6.758.135,6.509.591,5.141.591,5.141A2.3,2.3,0,0,1,.825,4.3c.075-.166.139-.281.139-.281A3.274,3.274,0,0,1,3.32,1.451h.007c.5-.5,5.1-.829,5.1-.829L10.167.29,24.324.568l.6.012,7.2-.346L36.991,0c1.119,0,1.7,2.819,1.7,2.819A6.963,6.963,0,0,1,39.291,6.944Z" transform="translate(0 4.781)" fill="#404040"/>
      <ellipse id="Ellipse_47" data-name="Ellipse 47" cx="2.134" cy="1.336" rx="2.134" ry="1.336" transform="translate(12.975 7.602) rotate(-21.92)" opacity="0.1"/>
      <ellipse id="Ellipse_48" data-name="Ellipse 48" cx="2.134" cy="1.336" rx="2.134" ry="1.336" transform="translate(12.892 7.435) rotate(-21.92)" fill="#f2f2f2"/>
      <path id="Path_448" data-name="Path 448" d="M2.5,0A3.318,3.318,0,0,1,1.9,1.586C1.311,2.478.5,3,0,2.849c.075-.166.139-.281.139-.281A3.267,3.267,0,0,1,2.5,0Z" transform="translate(0.908 6.317)" opacity="0.1"/>
      <path id="Path_449" data-name="Path 449" d="M2.5,0A3.319,3.319,0,0,1,1.9,1.586C1.311,2.478.5,3,0,2.849c.075-.166.139-.281.139-.281A3.268,3.268,0,0,1,2.5,0Z" transform="translate(0.783 6.234)" fill="#f2f2f2"/>
      <path id="Path_450" data-name="Path 450" d="M3.441.456H.166L0,0H3.98Z" transform="translate(5.649 7.02)"/>
      <rect id="Rectangle_364" data-name="Rectangle 364" width="5.389" height="1.575" transform="translate(2.954 10.834)"/>
      <circle id="Ellipse_49" data-name="Ellipse 49" cx="0.746" cy="0.746" r="0.746" transform="translate(13.401 12.45)" opacity="0.1"/>
      <circle id="Ellipse_50" data-name="Ellipse 50" cx="0.746" cy="0.746" r="0.746" transform="translate(13.318 12.326)" fill="#f2f2f2"/>
      <ellipse id="Ellipse_51" data-name="Ellipse 51" cx="0.373" cy="0.788" rx="0.373" ry="0.788" transform="translate(0.218 11.829)" opacity="0.1"/>
      <ellipse id="Ellipse_52" data-name="Ellipse 52" cx="0.373" cy="0.788" rx="0.373" ry="0.788" transform="translate(0.093 11.787)" fill="#f2f2f2"/>
      <path id="Path_451" data-name="Path 451" d="M9.018,4.243a15.572,15.572,0,0,0-.5,3.607l-.166.58L.271,9.342S.312,5.28.436,3.373A7.74,7.74,0,0,0,0,.334L.6.346,7.8,0A4.213,4.213,0,0,1,9.018,4.243Z" transform="translate(24.324 5.015)" fill="#2a2a2a"/>
      <path id="Path_452" data-name="Path 452" d="M.19.112A.2.2,0,0,0,0,.348.145.145,0,0,0,.086.456,5.926,5.926,0,0,0,1.449.313a.229.229,0,0,0,.192-.2C1.644.05,1.623,0,1.537,0Z" transform="translate(31.309 6.605)" fill="#f2f2f2"/>
      <path id="Path_453" data-name="Path 453" d="M0,1.036a.887.887,0,0,0,1.2.622L1.534.373.871,0Z" transform="translate(24.305 4.159)" fill="#232323"/>
      <path id="Path_454" data-name="Path 454" d="M.411.287a1.586,1.586,0,0,1,1.9.061A.846.846,0,0,1,2.55,1.365c-.234.507-.79,1.057-2.088.4a.837.837,0,0,1-.316-.279L.14,1.474A.841.841,0,0,1,.411.287Z" transform="translate(25.112 3.057)" fill="#232323"/>
      <circle id="Ellipse_53" data-name="Ellipse 53" cx="0.829" cy="0.829" r="0.829" transform="translate(19.723 12.886)" fill="#0c0c0c"/>
      <ellipse id="Ellipse_54" data-name="Ellipse 54" cx="0.456" cy="0.829" rx="0.456" ry="0.829" transform="translate(37.219 11.393)" fill="#0c0c0c"/>
      <rect id="Rectangle_365" data-name="Rectangle 365" width="1.078" height="1.451" rx="0.539" transform="translate(19.993 11.165)" fill="#0c0c0c"/>
      <path id="Path_455" data-name="Path 455" d="M.5,0h0a.29.29,0,0,1,.29.29V.954a.5.5,0,0,1-.5.5h0A.29.29,0,0,1,0,1.161V.5A.5.5,0,0,1,.5,0Z" transform="translate(37.177 9.569)" fill="#0c0c0c"/>
      <path id="Path_456" data-name="Path 456" d="M.5,1.451h0a.5.5,0,0,1-.5-.5V.5A.5.5,0,0,1,.5,0h0C.771,0,.746.224.746.5V.953C.746,1.227.772,1.451.5,1.451Z" transform="translate(37.177 13.425)" fill="#0c0c0c"/>
      <path id="Path_457" data-name="Path 457" d="M.332,0h0a.5.5,0,0,1,.5.5v.622A.332.332,0,0,1,.5,1.451h0a.5.5,0,0,1-.5-.5V.332A.332.332,0,0,1,.332,0Z" transform="translate(36.099 11.476)" fill="#0c0c0c"/>
      <path id="Path_458" data-name="Path 458" d="M.684.415c0,.071,0,.143,0,.213a5.032,5.032,0,0,1-.1.816A.518.518,0,0,1,.5,1.451a.5.5,0,0,1-.5-.5V.5A.5.5,0,0,1,.5,0,.488.488,0,0,1,.626.017L.67.031C.679.157.684.285.684.415Z" transform="translate(38.587 11.601)" fill="#0c0c0c"/>
      <rect id="Rectangle_366" data-name="Rectangle 366" width="1.078" height="1.451" rx="0.539" transform="translate(22.087 12.927)" fill="#0c0c0c"/>
      <rect id="Rectangle_367" data-name="Rectangle 367" width="1.078" height="1.451" rx="0.539" transform="translate(18.024 12.927)" fill="#0c0c0c"/>
      <rect id="Rectangle_368" data-name="Rectangle 368" width="1.078" height="1.451" rx="0.539" transform="translate(20.014 15.083)" fill="#0c0c0c"/>
    </g>
    <g id="Group_474" data-name="Group 474" transform="translate(216.055 54.071)">
      <path id="Path_461" data-name="Path 461" d="M2.174.066,26.626,12.359a1.156,1.156,0,0,1,.634,1.111L25.839,34.513a.573.573,0,0,1-.83.473L0,22.222,1.284.579a.615.615,0,0,1,.89-.513Z" transform="translate(19.183 0)" fill="#232323"/>
      <path id="Path_462" data-name="Path 462" d="M2.121.064,25.972,12.055a1.128,1.128,0,0,1,.619,1.084L25.2,33.665a.559.559,0,0,1-.81.461L0,21.676,1.252.564a.6.6,0,0,1,.868-.5Z" transform="translate(19.517 0.43)" fill="#131313"/>
      <path id="Path_463" data-name="Path 463" d="M1.922.058l21.62,10.87a1.022,1.022,0,0,1,.561.982L22.847,30.517a.507.507,0,0,1-.734.418L0,19.649,1.135.512A.544.544,0,0,1,1.922.058Z" transform="translate(20.761 2.029)" fill="#5fbd66"/>
      <path id="Path_464" data-name="Path 464" d="M.374,10.536l24.483,12.33a1.63,1.63,0,0,0,1.468,0L44.437,13.67a.76.76,0,0,0,.115-.763,1.7,1.7,0,0,0-.134-.33l-2.468-1.3L21.2.925,19.959.267A2.3,2.3,0,0,0,17.827.258L.367,9.328a.678.678,0,0,0,.008,1.208Z" transform="translate(0 22.04)" fill="#404040"/>
      <path id="Path_465" data-name="Path 465" d="M.375.715l24.483,12.33a1.63,1.63,0,0,0,1.468,0L44.438,3.849a.76.76,0,0,0,.115-.763L26.495,12.471a1.575,1.575,0,0,1-1.429.012L.009,0A.675.675,0,0,0,.375.715Z" transform="translate(0 31.862)" opacity="0.1"/>
      <path id="Path_466" data-name="Path 466" d="M13.73,4.126,5.8.12A1.114,1.114,0,0,0,4.774.131L.174,2.589a.329.329,0,0,0,.007.584L8.265,7.249a.916.916,0,0,0,.862-.02l4.618-2.6a.283.283,0,0,0-.015-.5Z" transform="translate(9.883 32.145)" opacity="0.1"/>
      <path id="Path_467" data-name="Path 467" d="M33.5,12.6l-8.532,4.533a.694.694,0,0,1-.639.006L.225,4.951a.41.41,0,0,1,0-.733L8.56.094a.9.9,0,0,1,.807,0L33.5,12.255a.2.2,0,0,1,0,.347Z" transform="translate(8.783 22.998)" opacity="0.1"/>
      <rect id="Rectangle_369" data-name="Rectangle 369" width="0.096" height="8.77" transform="matrix(0.447, -0.894, 0.894, 0.447, 28.632, 13.081)" fill="#fefefe"/>
      <rect id="Rectangle_370" data-name="Rectangle 370" width="0.096" height="8.813" transform="translate(28.63 14.231) rotate(-62.909)" fill="#fefefe"/>
      <rect id="Rectangle_371" data-name="Rectangle 371" width="0.096" height="5.048" transform="matrix(0.455, -0.89, 0.89, 0.455, 30.067, 16.429)" fill="#fefefe"/>
    </g>
    <g id="Group_475" data-name="Group 475" transform="translate(182.207 119.18) rotate(-17)">
      <path id="Path_478" data-name="Path 478" d="M14.243,31.6S7.26,28.111,8.258,18.3s.665-8.812.665-8.812S10.586,4,13.578,2.007c0,0-7.15-7.316-12.8,5.986,0,0-1.5,7.981-.333,13.3a34.859,34.859,0,0,0,3.824,9.644s2.494,2.494,5.321,2.494A7.076,7.076,0,0,0,14.243,31.6Z" transform="translate(0.208 2.042)"/>
      <path id="Path_479" data-name="Path 479" d="M26.008,14.964S22.017,25.605,9.547,23.61.4,0,.4,0-.991,16.124,6.3,20.866a5.764,5.764,0,0,0,6.589-.118c1.279-.956,2.374-2.625,2.229-5.535Z" transform="translate(0 12.779)" fill="#232323"/>
      <path id="Path_480" data-name="Path 480" d="M25.529,7.5A15.494,15.494,0,0,0,7.545.724C-.082,3.974.06,12.341.06,12.341-.859,26.214,9.039,25.99,11.369,11.2a6.721,6.721,0,0,0-.416-4.074,6.8,6.8,0,0,1-4.739,4.24c-3.58.749-4.192-.443-4.074-2.245l0-.054A6.8,6.8,0,0,1,3.76,5.107C5.809,2.72,10.277-.765,15.027,6.544l.332.822S21.233,8.95,25.529,7.5Z" transform="translate(0.09 0)" fill="#232323"/>
      <path id="Path_481" data-name="Path 481" d="M3.241,0A3.244,3.244,0,0,0,0,3.241V18.49a3.378,3.378,0,0,0,3.374,3.374H11.4A4.07,4.07,0,0,0,15.463,17.8V4.1a4.1,4.1,0,0,0-4.1-4.1Z" transform="translate(13.205 7.209)" fill="#3f3d56"/>
      <path id="Path_482" data-name="Path 482" d="M1.722,0A1.724,1.724,0,0,0,0,1.722V18.895a1.724,1.724,0,0,0,1.722,1.722h7.63a3.454,3.454,0,0,0,3.45-3.45V3.04A3.043,3.043,0,0,0,9.763,0Z" transform="translate(16.115 7.874)" fill="#c4c923"/>
      <path id="Path_483" data-name="Path 483" d="M1.524,0A1.719,1.719,0,0,0,.831,1.377V18.55a1.724,1.724,0,0,0,1.722,1.722h7.63a3.43,3.43,0,0,0,.857-.112,3.426,3.426,0,0,1-1.689.445H1.722A1.724,1.724,0,0,1,0,18.883V1.71A1.724,1.724,0,0,1,1.524,0Z" transform="translate(16.032 7.969)" opacity="0.2"/>
      <ellipse id="Ellipse_60" data-name="Ellipse 60" cx="1.663" cy="2.078" rx="1.663" ry="2.078" transform="translate(12.124 12.031)" fill="#c4c923"/>
      <path id="Path_484" data-name="Path 484" d="M1.33,2.078A2.019,2.019,0,0,0,0,.042,1.351,1.351,0,0,1,.333,0,1.906,1.906,0,0,1,2,2.078,1.906,1.906,0,0,1,.333,4.157,1.349,1.349,0,0,1,0,4.115,2.019,2.019,0,0,0,1.33,2.078Z" transform="translate(13.621 12.031)" opacity="0.2"/>
      <path id="Path_485" data-name="Path 485" d="M0,.582V4.9a.582.582,0,0,0,1.164,0V.582A.582.582,0,1,0,0,.582Z" transform="translate(13.454 18.848)" fill="#c4c923"/>
      <path id="Path_486" data-name="Path 486" d="M.416,4.9V.582A.581.581,0,0,0,0,.027.575.575,0,0,1,.166,0,.583.583,0,0,1,.748.582V4.9a.583.583,0,0,1-.582.582A.574.574,0,0,1,0,5.46.581.581,0,0,0,.416,4.9Z" transform="translate(13.953 18.848)" opacity="0.2"/>
      <circle id="Ellipse_61" data-name="Ellipse 61" cx="0.831" cy="0.831" r="0.831" transform="translate(4.31 26.662)" fill="#fff"/>
      <path id="Path_487" data-name="Path 487" d="M.665.831A.832.832,0,0,0,0,.017.831.831,0,1,1,0,1.646.832.832,0,0,0,.665.831Z" transform="translate(4.975 26.662)"/>
      <circle id="Ellipse_62" data-name="Ellipse 62" cx="0.831" cy="0.831" r="0.831" transform="translate(3.935 23.363)" fill="#fff"/>
      <path id="Path_488" data-name="Path 488" d="M.708.885A.886.886,0,0,0,0,.018.886.886,0,1,1,0,1.753.886.886,0,0,0,.708.885Z" transform="translate(4.56 23.32)"/>
      <circle id="Ellipse_63" data-name="Ellipse 63" cx="0.831" cy="0.831" r="0.831" transform="translate(4.808 8.206)" fill="#fff"/>
      <path id="Path_489" data-name="Path 489" d="M.678.847A.847.847,0,0,0,0,.017a.847.847,0,1,1,0,1.66A.847.847,0,0,0,.678.847Z" transform="translate(5.464 8.191)"/>
      <ellipse id="Ellipse_64" data-name="Ellipse 64" cx="1.663" cy="2.078" rx="1.663" ry="2.078" transform="translate(21.177 16.582)" fill="#fff" opacity="0.2"/>
      <ellipse id="Ellipse_65" data-name="Ellipse 65" cx="3.107" cy="3.883" rx="3.107" ry="3.883" transform="translate(19.732 14.776)" fill="#fff" opacity="0.2"/>
      <ellipse id="Ellipse_66" data-name="Ellipse 66" cx="4.681" cy="5.851" rx="4.681" ry="5.851" transform="translate(18.159 12.809)" fill="#fff" opacity="0.2"/>
    </g>
    <g id="Group_478" data-name="Group 478" transform="translate(0 75.291)">
      <path id="Path_499" data-name="Path 499" d="M118.94,728.021c0,.283-2.067.541-5.485.741-.622.036-1.288.07-1.994.1q-.916.041-1.919.078-.972.034-2.019.064c-2.2.063-4.641.108-7.229.131q-.942.009-1.91.013-1.008,0-2.039,0c-12.479,0-22.595-.507-22.595-1.132s10.116-1.132,22.595-1.132c5.373,0,10.306.094,14.184.251l.424.017h0C115.84,727.365,118.94,727.676,118.94,728.021Z" transform="translate(-71.887 -705.136)" fill="#3f3d56"/>
      <path id="Path_500" data-name="Path 500" d="M118.94,728.021c0,.283-2.067.541-5.485.741-.622.036-1.288.07-1.994.1q-.916.041-1.919.078-.972.034-2.019.064c-2.2.063-4.641.108-7.229.131q-.942.009-1.91.013-1.008,0-2.039,0c-12.479,0-22.595-.507-22.595-1.132s10.116-1.132,22.595-1.132c5.373,0,10.306.094,14.184.251l.424.017h0C115.84,727.365,118.94,727.676,118.94,728.021Z" transform="translate(-71.887 -705.136)" fill="#131313"/>
      <path id="Path_501" data-name="Path 501" d="M73.69,727.438c0,.236-2.067.453-5.485.618-.621.03-1.288.058-1.994.085q-.916.035-1.919.065-.972.029-2.019.054c-2.2.053-4.641.091-7.23.109q-.941.007-1.91.011-1.008,0-2.038,0c-12.479,0-22.6-.424-22.6-.947s10.116-.947,22.6-.947c5.372,0,10.306.079,14.184.21l.424.014h0C70.592,726.89,73.69,727.149,73.69,727.438Z" transform="translate(-28.5 -704.753)" fill="#404040"/>
      <path id="Path_502" data-name="Path 502" d="M157.047,496.675l-.567-1.737,13.585-.149.557,1.719Z" transform="translate(-151.212 -482.591)" fill="#3f3d56"/>
      <path id="Path_503" data-name="Path 503" d="M157.047,496.675l-.567-1.737,13.585-.149.557,1.719Z" transform="translate(-151.212 -482.591)" fill="#131313"/>
      <path id="Path_504" data-name="Path 504" d="M135.047,496.675l-.567-1.737,13.585-.149.557,1.719Z" transform="translate(-130.117 -482.591)" fill="#404040"/>
      <path id="Path_505" data-name="Path 505" d="M605.985,209.866a3.884,3.884,0,0,1-3.321-1.673,6.713,6.713,0,0,1-1.214-4.052,6.791,6.791,0,0,1,1.174-4.044,4.192,4.192,0,0,1,6.729.09,7.119,7.119,0,0,1,1.15,4.02,6.728,6.728,0,0,1-1.19,3.963A3.832,3.832,0,0,1,605.985,209.866Zm.041-1.254A2.234,2.234,0,0,0,608.1,207.4a6.107,6.107,0,0,0,.686-3.046,7.038,7.038,0,0,0-.7-3.35,2.3,2.3,0,0,0-2.153-1.3q-2.758,0-2.758,4.382,0,4.529,2.854,4.528Zm.463,12.012h-2.031l13.3-21.95h1.993Zm11.766.225a3.857,3.857,0,0,1-3.334-1.688,7.49,7.49,0,0,1-.035-8.081,4.177,4.177,0,0,1,6.713.09,7.154,7.154,0,0,1,1.142,4.02,6.769,6.769,0,0,1-1.182,3.956,3.793,3.793,0,0,1-3.3,1.7Zm.024-1.286a2.226,2.226,0,0,0,2.061-1.188,6.041,6.041,0,0,0,.681-3.034,7.186,7.186,0,0,0-.689-3.314,2.273,2.273,0,0,0-2.148-1.34q-2.774,0-2.774,4.382,0,4.495,2.869,4.495Z" transform="translate(-577.864 -198.45)" fill="#3f3d56"/>
      <path id="Path_506" data-name="Path 506" d="M605.985,209.866a3.884,3.884,0,0,1-3.321-1.673,6.713,6.713,0,0,1-1.214-4.052,6.791,6.791,0,0,1,1.174-4.044,4.192,4.192,0,0,1,6.729.09,7.119,7.119,0,0,1,1.15,4.02,6.728,6.728,0,0,1-1.19,3.963A3.832,3.832,0,0,1,605.985,209.866Zm.041-1.254A2.234,2.234,0,0,0,608.1,207.4a6.107,6.107,0,0,0,.686-3.046,7.038,7.038,0,0,0-.7-3.35,2.3,2.3,0,0,0-2.153-1.3q-2.758,0-2.758,4.382,0,4.529,2.854,4.528Zm.463,12.012h-2.031l13.3-21.95h1.993Zm11.766.225a3.857,3.857,0,0,1-3.334-1.688,7.49,7.49,0,0,1-.035-8.081,4.177,4.177,0,0,1,6.713.09,7.154,7.154,0,0,1,1.142,4.02,6.769,6.769,0,0,1-1.182,3.956,3.793,3.793,0,0,1-3.3,1.7Zm.024-1.286a2.226,2.226,0,0,0,2.061-1.188,6.041,6.041,0,0,0,.681-3.034,7.186,7.186,0,0,0-.689-3.314,2.273,2.273,0,0,0-2.148-1.34q-2.774,0-2.774,4.382,0,4.495,2.869,4.495Z" transform="translate(-577.864 -198.45)" fill="#3f3d56"/>
      <path id="Path_507" data-name="Path 507" d="M605.985,209.866a3.884,3.884,0,0,1-3.321-1.673,6.713,6.713,0,0,1-1.214-4.052,6.791,6.791,0,0,1,1.174-4.044,4.192,4.192,0,0,1,6.729.09,7.119,7.119,0,0,1,1.15,4.02,6.728,6.728,0,0,1-1.19,3.963A3.832,3.832,0,0,1,605.985,209.866Zm.041-1.254A2.234,2.234,0,0,0,608.1,207.4a6.107,6.107,0,0,0,.686-3.046,7.038,7.038,0,0,0-.7-3.35,2.3,2.3,0,0,0-2.153-1.3q-2.758,0-2.758,4.382,0,4.529,2.854,4.528Zm.463,12.012h-2.031l13.3-21.95h1.993Zm11.766.225a3.857,3.857,0,0,1-3.334-1.688,7.49,7.49,0,0,1-.035-8.081,4.177,4.177,0,0,1,6.713.09,7.154,7.154,0,0,1,1.142,4.02,6.769,6.769,0,0,1-1.182,3.956,3.793,3.793,0,0,1-3.3,1.7Zm.024-1.286a2.226,2.226,0,0,0,2.061-1.188,6.041,6.041,0,0,0,.681-3.034,7.186,7.186,0,0,0-.689-3.314,2.273,2.273,0,0,0-2.148-1.34q-2.774,0-2.774,4.382,0,4.495,2.869,4.495Z" transform="translate(-577.864 -198.45)" fill="#131313"/>
      <path id="Path_508" data-name="Path 508" d="M574.985,209.866a3.884,3.884,0,0,1-3.321-1.673,6.712,6.712,0,0,1-1.214-4.052,6.791,6.791,0,0,1,1.174-4.044,4.192,4.192,0,0,1,6.729.09,7.118,7.118,0,0,1,1.15,4.02,6.728,6.728,0,0,1-1.19,3.963A3.832,3.832,0,0,1,574.985,209.866Zm.041-1.254A2.234,2.234,0,0,0,577.1,207.4a6.107,6.107,0,0,0,.686-3.046,7.042,7.042,0,0,0-.7-3.35,2.3,2.3,0,0,0-2.153-1.3q-2.758,0-2.758,4.382,0,4.529,2.854,4.528Zm.463,12.012h-2.031l13.3-21.95h1.993Zm11.766.225a3.857,3.857,0,0,1-3.334-1.688,7.489,7.489,0,0,1-.035-8.081,4.177,4.177,0,0,1,6.713.09,7.154,7.154,0,0,1,1.142,4.02,6.769,6.769,0,0,1-1.182,3.956,3.793,3.793,0,0,1-3.3,1.7Zm.024-1.286a2.225,2.225,0,0,0,2.061-1.188,6.037,6.037,0,0,0,.682-3.034,7.184,7.184,0,0,0-.69-3.314,2.274,2.274,0,0,0-2.149-1.34q-2.774,0-2.774,4.382,0,4.495,2.87,4.495Z" transform="translate(-548.14 -198.45)" fill="#404040"/>
    </g>
    <g id="Group_479" data-name="Group 479" transform="translate(50.359 21.708)">
      <path id="Path_509" data-name="Path 509" d="M460.226,511.593h-.6l.2-11.683h.2Z" transform="translate(-459.629 -476.857)" fill="#e6e6e6"/>
      <path id="Path_515" data-name="Path 515" d="M654.272,344.47a.227.227,0,0,0,.227-.227v-2.422a.225.225,0,0,0-.3-.213V338.87a.757.757,0,0,0-.757-.757H628.693a.757.757,0,0,0-.757.757v33.223a.757.757,0,0,0,.757.757H653.44a.757.757,0,0,0,.757-.757V347.862a.225.225,0,0,0,.3-.213v-2.422a.225.225,0,0,0-.3-.213v-.558A.225.225,0,0,0,654.272,344.47Z" transform="translate(-626.946 -338.113)" fill="#232323"/>
      <path id="Path_516" data-name="Path 516" d="M669.223,356.453a.757.757,0,0,1,.757.757v30.272a.757.757,0,0,1-.757.757H647.5a.757.757,0,0,1-.757-.757V357.21a.757.757,0,0,1,.757-.757h21.72" transform="translate(-644.242 -354.977)" fill="#fff"/>
      <circle id="Ellipse_68" data-name="Ellipse 68" cx="0.303" cy="0.303" r="0.303" transform="translate(13.818 0.454)" fill="#fff"/>
      <rect id="Rectangle_373" data-name="Rectangle 373" width="18.601" height="1.849" transform="translate(4.507 5.447)" fill="#c4c923"/>
      <rect id="Rectangle_374" data-name="Rectangle 374" width="18.601" height="0.7" transform="translate(4.507 9.801)" fill="#e6e6e6"/>
      <rect id="Rectangle_375" data-name="Rectangle 375" width="18.601" height="0.7" transform="translate(4.507 11.938)" fill="#e6e6e6"/>
      <rect id="Rectangle_376" data-name="Rectangle 376" width="9.611" height="0.7" transform="translate(4.507 14.102)" fill="#e6e6e6"/>
      <rect id="Rectangle_377" data-name="Rectangle 377" width="18.601" height="0.7" transform="translate(4.507 16.305)" fill="#e6e6e6"/>
      <rect id="Rectangle_378" data-name="Rectangle 378" width="18.601" height="0.7" transform="translate(4.507 18.507)" fill="#e6e6e6"/>
      <rect id="Rectangle_379" data-name="Rectangle 379" width="9.289" height="0.7" transform="translate(4.507 20.71)" fill="#e6e6e6"/>
      <rect id="Rectangle_380" data-name="Rectangle 380" width="18.601" height="0.7" transform="translate(4.507 22.912)" fill="#e6e6e6"/>
      <rect id="Rectangle_381" data-name="Rectangle 381" width="18.601" height="0.7" transform="translate(4.507 25.115)" fill="#e6e6e6"/>
      <rect id="Rectangle_382" data-name="Rectangle 382" width="5.874" height="1.931" transform="translate(17.256 27.816)" fill="#5fbd66"/>
    </g>
    <g id="Group_481" data-name="Group 481" transform="matrix(0.899, -0.438, 0.438, 0.899, 38.564, 124.11)">
      <g id="Group_480" data-name="Group 480" transform="translate(0 0)">
        <g id="Group_482" data-name="Group 482">
          <path id="Path_521" data-name="Path 521" d="M3.278,2.519C2.682,3.043,0,3.494,0,3.494S.774.888,1.37.361A1.44,1.44,0,1,1,3.277,2.519Z" transform="translate(0.802 9.62)" fill="#5fbd66"/>
          <path id="Path_522" data-name="Path 522" d="M3.065,2.342C2.567,2.962,0,3.857,0,3.857S.323,1.157.821.538a1.44,1.44,0,0,1,2.244,1.8Z" transform="translate(1.139 15.634)" fill="#5fbd66"/>
          <path id="Path_528" data-name="Path 528" d="M3.278,2.519C2.682,3.043,0,3.494,0,3.494S.774.888,1.37.361A1.44,1.44,0,1,1,3.277,2.519Z" transform="translate(0.802 9.62)" fill="#fc6681"/>
          <path id="Path_529" data-name="Path 529" d="M3.065,2.342C2.567,2.962,0,3.857,0,3.857S.323,1.157.821.538a1.44,1.44,0,0,1,2.244,1.8Z" transform="translate(1.139 15.634)" fill="#fc6681"/>
          <path id="Path_537" data-name="Path 537" d="M38.8,18.064S38.294,8.1,36.209,4.569c0,0-1.529-2.792-2.806-3.606V.641c-2.085-1.443-4.65,0-4.65,0V.784l-.534.445-2.407-.008A1.16,1.16,0,0,0,24.919.8H13.937a1.159,1.159,0,0,0-.854.374h-2.5a1.6,1.6,0,0,0-.534-.344V.641C7.964-.8,5.4.641,5.4.641v.387a.686.686,0,0,0-.16.147,7.019,7.019,0,0,0-2.592,3.18S.054,12.132,0,18.225s2.3,6.948,3.527,7.108,3.42-.052,5.558-5.45l.909-3.153s.16-1.871,2.085-.695,3.634-.641,3.634-.641h7.216s2.4,1.494,4.6.317c0,0,.855-1.122,1.657,2.672,0,0,2.459,7.8,6.253,7S38.8,18.064,38.8,18.064Z" fill="url(#linear-gradient)"/>
          <path id="Path_538" data-name="Path 538" d="M0,1.205V.629s2.515-1.415,4.559,0v.524Z" transform="translate(5.673 0.248)" fill="#535461"/>
          <path id="Path_539" data-name="Path 539" d="M0,1.205V.629s2.515-1.415,4.559,0v.524Z" transform="translate(28.572 0.248)" fill="#535461"/>
          <path id="Path_540" data-name="Path 540" d="M0,1.205V.629s2.515-1.415,4.559,0v.524Z" transform="translate(5.673 0.248)" opacity="0.1"/>
          <path id="Path_541" data-name="Path 541" d="M0,1.205V.629s2.515-1.415,4.559,0v.524Z" transform="translate(28.572 0.248)" opacity="0.1"/>
          <path id="Path_542" data-name="Path 542" d="M12.839.684H10.376S9.747-.05,7.651,0,5.136.684,5.136.684A6.89,6.89,0,0,0,2.595,3.8S.053,11.426,0,17.4s2.253,6.812,3.458,6.969,3.354-.052,5.45-5.345L9.8,15.933s.157-1.834,2.044-.681,3.563-.629,3.563-.629h7.074s2.358,1.467,4.506.314c0,0,.838-1.1,1.624,2.62,0,0,2.41,7.651,6.131,6.865s3.3-7.179,3.3-7.179S37.546,7.47,35.5,4.011c0,0-1.965-3.589-3.275-3.747,0,0-2.83-.524-3.93-.052l-.629.524Z" transform="translate(0.379 0.717)" fill="#404040"/>
          <circle id="Ellipse_70" data-name="Ellipse 70" cx="4.559" cy="4.559" r="4.559" transform="translate(2.948 1.978)" fill="#131313"/>
          <circle id="Ellipse_71" data-name="Ellipse 71" cx="4.559" cy="4.559" r="4.559" transform="translate(26.738 1.978)" fill="#131313"/>
          <path id="Path_543" data-name="Path 543" d="M1.685,1.97l-.608.538a.282.282,0,0,1-.373,0L.1,1.97a.281.281,0,0,1-.1-.21V.281A.282.282,0,0,1,.282,0H1.5a.281.281,0,0,1,.282.282V1.76A.281.281,0,0,1,1.685,1.97Z" transform="translate(6.617 3.55)" fill="#404040"/>
          <path id="Path_544" data-name="Path 544" d="M1.685.607,1.077.07A.282.282,0,0,0,.7.07L.1.608a.281.281,0,0,0-.1.21V2.3a.281.281,0,0,0,.282.282H1.5A.281.281,0,0,0,1.782,2.3V.818a.282.282,0,0,0-.1-.211Z" transform="translate(6.617 6.945)" fill="#404040"/>
          <path id="Path_545" data-name="Path 545" d="M1.969,1.686l.538-.609a.282.282,0,0,0,0-.373L1.969.1a.282.282,0,0,0-.21-.1H.281A.282.282,0,0,0,0,.282V1.5a.281.281,0,0,0,.282.282H1.76A.281.281,0,0,0,1.969,1.686Z" transform="translate(4.522 5.646)" fill="#404040"/>
          <path id="Path_546" data-name="Path 546" d="M.607,1.686.071,1.077A.281.281,0,0,1,.071.7L.608.1A.281.281,0,0,1,.818,0H2.3a.281.281,0,0,1,.282.282V1.5a.281.281,0,0,1-.281.282H.818A.281.281,0,0,1,.607,1.686Z" transform="translate(7.916 5.646)" fill="#404040"/>
          <circle id="Ellipse_72" data-name="Ellipse 72" cx="3.301" cy="3.301" r="3.301" transform="translate(10.389 8.213)" fill="#131313"/>
          <circle id="Ellipse_73" data-name="Ellipse 73" cx="2.201" cy="2.201" r="2.201" transform="translate(11.384 8.79)" fill="#404040"/>
          <circle id="Ellipse_74" data-name="Ellipse 74" cx="3.301" cy="3.301" r="3.301" transform="translate(21.812 8.213)" fill="#131313"/>
          <circle id="Ellipse_75" data-name="Ellipse 75" cx="2.201" cy="2.201" r="2.201" transform="translate(22.808 8.79)" fill="#404040"/>
          <circle id="Ellipse_78" data-name="Ellipse 78" cx="0.943" cy="0.943" r="0.943" transform="translate(18.563 10.938)" fill="#131313"/>
          <circle id="Ellipse_79" data-name="Ellipse 79" cx="0.206" cy="0.206" r="0.206" transform="translate(17.859 8.527)" fill="#131313"/>
          <circle id="Ellipse_80" data-name="Ellipse 80" cx="0.206" cy="0.206" r="0.206" transform="translate(18.631 8.527)" fill="#131313"/>
          <circle id="Ellipse_81" data-name="Ellipse 81" cx="0.206" cy="0.206" r="0.206" transform="translate(18.528 9.505)" fill="#131313"/>
          <circle id="Ellipse_82" data-name="Ellipse 82" cx="0.21" cy="0.21" r="0.21" transform="translate(19.245 9.523)" fill="#131313"/>
          <circle id="Ellipse_83" data-name="Ellipse 83" cx="0.206" cy="0.206" r="0.206" transform="translate(19.968 9.505)" fill="#131313"/>
          <circle id="Ellipse_84" data-name="Ellipse 84" cx="0.206" cy="0.206" r="0.206" transform="translate(18.219 9.042)" fill="#131313"/>
          <circle id="Ellipse_85" data-name="Ellipse 85" cx="0.21" cy="0.21" r="0.21" transform="translate(18.878 9.052)" fill="#131313"/>
          <circle id="Ellipse_86" data-name="Ellipse 86" cx="0.21" cy="0.21" r="0.21" transform="translate(19.559 9.052)" fill="#131313"/>
          <circle id="Ellipse_87" data-name="Ellipse 87" cx="0.206" cy="0.206" r="0.206" transform="translate(20.276 9.042)" fill="#131313"/>
          <circle id="Ellipse_88" data-name="Ellipse 88" cx="0.21" cy="0.21" r="0.21" transform="translate(19.245 8.528)" fill="#131313"/>
          <circle id="Ellipse_89" data-name="Ellipse 89" cx="0.21" cy="0.21" r="0.21" transform="translate(19.978 8.528)" fill="#131313"/>
          <circle id="Ellipse_90" data-name="Ellipse 90" cx="0.206" cy="0.206" r="0.206" transform="translate(20.585 8.527)" fill="#131313"/>
          <rect id="Rectangle_383" data-name="Rectangle 383" width="1.153" height="1.991" rx="0.576" transform="translate(11.227 1.768)" fill="#404040"/>
          <rect id="Rectangle_384" data-name="Rectangle 384" width="1.153" height="1.991" rx="0.576" transform="translate(26.528 1.768)" fill="#404040"/>
          <circle id="Ellipse_91" data-name="Ellipse 91" cx="1.258" cy="1.258" r="1.258" transform="translate(30.092 2.502)" fill="#404040"/>
          <circle id="Ellipse_92" data-name="Ellipse 92" cx="1.258" cy="1.258" r="1.258" transform="translate(27.419 5.174)" fill="#404040"/>
          <circle id="Ellipse_93" data-name="Ellipse 93" cx="1.258" cy="1.258" r="1.258" transform="translate(32.869 5.017)" fill="#404040"/>
          <circle id="Ellipse_94" data-name="Ellipse 94" cx="1.258" cy="1.258" r="1.258" transform="translate(30.301 7.794)" fill="#404040"/>
          <rect id="Rectangle_385" data-name="Rectangle 385" width="13.048" height="6.969" rx="3.485" transform="translate(12.904 1.034)" fill="#131313"/>
          <path id="Path_556" data-name="Path 556" d="M0,0" transform="translate(36.851 11.441)" fill="none"/>
        </g>
      </g>
    </g>
    <g id="Group_483" data-name="Group 483" transform="matrix(0.999, -0.035, 0.035, 0.999, 199.347, 9.107)">
      <path id="Path_435-2" data-name="Path 435" d="M3.652,2.513c0,.047,0,.094,0,.141a3.333,3.333,0,0,1-.065.541A2.233,2.233,0,0,1,2.228,4.964a1.352,1.352,0,0,1-.4.061C.818,5.025,0,3.9,0,2.513S.818,0,1.826,0C2.772,0,3.55.99,3.643,2.259,3.649,2.342,3.652,2.427,3.652,2.513Z" transform="translate(22.359 5.446)" fill="#131313"/>
      <path id="Path_436-2" data-name="Path 436" d="M2.3,2.05a3.332,3.332,0,0,1-.065.541A2.233,2.233,0,0,1,.882,4.36,2.4,2.4,0,0,1,0,2.21C0,.99.516,0,1.153,0c.535,0,.984.7,1.115,1.645C2.286,1.775,2.3,1.911,2.3,2.05Z" transform="translate(23.704 6.05)"/>
      <path id="Path_437-2" data-name="Path 437" d="M0,.477S4.943-.539,7.551.395c0,0,.384.192,0,.522,0,0,.364.384-.271.522l-2.522.155L0,1.108Z" transform="translate(16.839 1.921)" fill="#131313"/>
      <path id="Path_438-2" data-name="Path 438" d="M0,.408S4.232-.461,6.465.338c0,0,.33.165,0,.447,0,0,.311.33-.232.447l-2.159.133L0,.95Z" transform="translate(17.704 2.117)"/>
      <path id="Path_439-2" data-name="Path 439" d="M6.92,2.032,6.59,1.373S6.735.706,5.56.51A.709.709,0,0,0,4.847,0a.714.714,0,0,0-.709.489C3.969.5,3.789.523,3.6.549l-.269,1.44L3.3,1.922s.171-.788-1.366-.9A.572.572,0,0,0,2.059.659.685.685,0,0,0,1.332.027.685.685,0,0,0,.6.659a.577.577,0,0,0,.153.387Q.541,1.066.3,1.1L0,2.718l1.4.192,2.224-.33-.2-.394L4.7,2.361Z" transform="translate(15.604 2.014)" fill="#5fbd66"/>
      <path id="Path_440-2" data-name="Path 440" d="M6.92,2.032,6.59,1.373S6.735.706,5.56.51A.709.709,0,0,0,4.847,0a.714.714,0,0,0-.709.489C3.969.5,3.789.523,3.6.549l-.269,1.44L3.3,1.922s.171-.788-1.366-.9A.572.572,0,0,0,2.059.659.685.685,0,0,0,1.332.027.685.685,0,0,0,.6.659a.577.577,0,0,0,.153.387Q.541,1.066.3,1.1L0,2.718l1.4.192,2.224-.33-.2-.394L4.7,2.361Z" transform="translate(15.604 2.014)" opacity="0.2"/>
      <path id="Path_441-2" data-name="Path 441" d="M.357,1.26S.137.028,1.153,0s.686,1.785.686,1.785.769.165.824.467S0,2.636,0,2.636Z" transform="translate(17.443 1.327)" fill="#5fbd66"/>
      <path id="Path_442-2" data-name="Path 442" d="M4.833,2.869A2.534,2.534,0,0,1,2.416,5.506,2.534,2.534,0,0,1,0,2.869,2.769,2.769,0,0,1,2.43,0,2.747,2.747,0,0,1,4.833,2.869Z" transform="translate(11.183 6.228)" fill="#131313"/>
      <ellipse id="Ellipse_45-2" data-name="Ellipse 45" cx="1.922" cy="2.224" rx="1.922" ry="2.224" transform="translate(11.677 6.984)"/>
      <ellipse id="Ellipse_46-2" data-name="Ellipse 46" cx="2.416" cy="2.636" rx="2.416" ry="2.636" transform="translate(0.556 6.215)" fill="#131313"/>
      <path id="Path_443-2" data-name="Path 443" d="M1.073,0S-.053.055,0,.659.963.824.963.824Z" transform="translate(6.018 2.563)" fill="#36334a"/>
      <path id="Path_444-2" data-name="Path 444" d="M10.218,3.569,10.682.476s.11-.384-1.373-.384c0,0-4.75-.3-5.959.192,0,0-1.4.522-3.35,3.213C0,3.5,10.026,3.734,10.218,3.569Z" transform="translate(6.24 0)" fill="#131313"/>
      <path id="Path_445-2" data-name="Path 445" d="M9.546,0,8.694,3.377l-.534-.013L5.634,3.3,0,3.166A28.8,28.8,0,0,1,2.653.137Z" transform="translate(6.744 0.338)"/>
      <path id="Path_446-2" data-name="Path 446" d="M0,2.15l.23-.89S.01.028,1.026,0s.686,1.785.686,1.785.7.15.812.426Z" transform="translate(12.38 1.491)" fill="#5fbd66" opacity="0.2"/>
      <path id="Path_447-2" data-name="Path 447" d="M26.024,4.6A2.118,2.118,0,0,0,24.83,2.664c-.989-.055-1.648,3.707-1.648,3.707l-7.606.686s.261-3.2-1.579-3.721-2.32,3.226-2.4,3.748S.5,7.03.2,6.81s-.192-2.334-.11-2.5.3-.906.3-.906a1.521,1.521,0,0,1,.155-.555c.049-.11.092-.186.092-.186A2.169,2.169,0,0,1,2.2.961h0C2.533.632,5.581.412,5.581.412L6.734.192l9.376.184.4.008L21.277.155,24.5,0c.741,0,1.126,1.867,1.126,1.867A4.612,4.612,0,0,1,26.024,4.6Z" transform="translate(0 3.167)" fill="#404040"/>
      <ellipse id="Ellipse_47-2" data-name="Ellipse 47" cx="1.414" cy="0.885" rx="1.414" ry="0.885" transform="translate(8.594 5.035) rotate(-21.92)" opacity="0.1"/>
      <ellipse id="Ellipse_48-2" data-name="Ellipse 48" cx="1.414" cy="0.885" rx="1.414" ry="0.885" transform="translate(8.539 4.925) rotate(-21.92)" fill="#f2f2f2"/>
      <path id="Path_448-2" data-name="Path 448" d="M1.653,0A2.2,2.2,0,0,1,1.26,1.05c-.392.591-.929.939-1.26.837C.049,1.777.092,1.7.092,1.7A2.164,2.164,0,0,1,1.653,0Z" transform="translate(0.601 4.184)" opacity="0.1"/>
      <path id="Path_449-2" data-name="Path 449" d="M1.653,0A2.2,2.2,0,0,1,1.26,1.05c-.392.591-.929.939-1.26.837C.049,1.777.092,1.7.092,1.7A2.164,2.164,0,0,1,1.653,0Z" transform="translate(0.519 4.129)" fill="#f2f2f2"/>
      <path id="Path_450-2" data-name="Path 450" d="M2.279.3H.11L0,0H2.636Z" transform="translate(3.741 4.649)"/>
      <rect id="Rectangle_364-2" data-name="Rectangle 364" width="3.57" height="1.043" transform="translate(1.956 7.175)"/>
      <circle id="Ellipse_49-2" data-name="Ellipse 49" cx="0.494" cy="0.494" r="0.494" transform="translate(8.876 8.247)" opacity="0.1"/>
      <circle id="Ellipse_50-2" data-name="Ellipse 50" cx="0.494" cy="0.494" r="0.494" transform="translate(8.821 8.164)" fill="#f2f2f2"/>
      <ellipse id="Ellipse_51-2" data-name="Ellipse 51" cx="0.247" cy="0.522" rx="0.247" ry="0.522" transform="translate(0.144 7.834)" opacity="0.1"/>
      <ellipse id="Ellipse_52-2" data-name="Ellipse 52" cx="0.247" cy="0.522" rx="0.247" ry="0.522" transform="translate(0.062 7.807)" fill="#f2f2f2"/>
      <path id="Path_451-2" data-name="Path 451" d="M5.973,2.81A10.314,10.314,0,0,0,5.644,5.2l-.11.384-5.355.6S.207,3.5.289,2.234A5.125,5.125,0,0,0,0,.221L.4.229,5.166,0A2.79,2.79,0,0,1,5.973,2.81Z" transform="translate(16.111 3.322)" fill="#2a2a2a"/>
      <path id="Path_452-2" data-name="Path 452" d="M.126.074A.135.135,0,0,0,0,.23.1.1,0,0,0,.057.3,3.925,3.925,0,0,0,.96.208.152.152,0,0,0,1.086.072C1.089.033,1.075,0,1.018,0Z" transform="translate(20.737 4.375)" fill="#f2f2f2"/>
      <path id="Path_453-2" data-name="Path 453" d="M0,.686A.587.587,0,0,0,.8,1.1l.22-.851L.577,0Z" transform="translate(16.098 2.755)" fill="#232323"/>
      <path id="Path_454-2" data-name="Path 454" d="M.272.19A1.05,1.05,0,0,1,1.527.23.56.56,0,0,1,1.689.9c-.155.336-.523.7-1.383.264A.555.555,0,0,1,.1.983l0-.007A.557.557,0,0,1,.272.19Z" transform="translate(16.633 2.025)" fill="#232323"/>
      <circle id="Ellipse_53-2" data-name="Ellipse 53" cx="0.549" cy="0.549" r="0.549" transform="translate(13.064 8.535)" fill="#0c0c0c"/>
      <ellipse id="Ellipse_54-2" data-name="Ellipse 54" cx="0.302" cy="0.549" rx="0.302" ry="0.549" transform="translate(24.651 7.546)" fill="#0c0c0c"/>
      <rect id="Rectangle_365-2" data-name="Rectangle 365" width="0.714" height="0.961" rx="0.357" transform="translate(13.242 7.395)" fill="#0c0c0c"/>
      <path id="Path_455-2" data-name="Path 455" d="M.329,0h0A.192.192,0,0,1,.522.192V.632a.33.33,0,0,1-.33.33h0A.192.192,0,0,1,0,.769V.33A.329.329,0,0,1,.33,0Z" transform="translate(24.624 6.338)" fill="#0c0c0c"/>
      <path id="Path_456-2" data-name="Path 456" d="M.33.961h0A.33.33,0,0,1,0,.632v-.3A.33.33,0,0,1,.33,0h0C.511,0,.494.148.494.329v.3C.494.813.511.961.33.961Z" transform="translate(24.624 8.892)" fill="#0c0c0c"/>
      <path id="Path_457-2" data-name="Path 457" d="M.22,0h0a.329.329,0,0,1,.33.329V.741a.22.22,0,0,1-.22.22h0A.33.33,0,0,1,0,.632V.22A.22.22,0,0,1,.22,0Z" transform="translate(23.91 7.601)" fill="#0c0c0c"/>
      <path id="Path_458-2" data-name="Path 458" d="M.453.275c0,.047,0,.094,0,.141A3.334,3.334,0,0,1,.384.956a.333.333,0,0,1-.055,0A.33.33,0,0,1,0,.632V.33A.33.33,0,0,1,.33,0,.324.324,0,0,1,.415.011L.444.021C.45.1.453.189.453.275Z" transform="translate(25.558 7.684)" fill="#0c0c0c"/>
      <rect id="Rectangle_366-2" data-name="Rectangle 366" width="0.714" height="0.961" rx="0.357" transform="translate(14.629 8.562)" fill="#0c0c0c"/>
      <rect id="Rectangle_367-2" data-name="Rectangle 367" width="0.714" height="0.961" rx="0.357" transform="translate(11.938 8.562)" fill="#0c0c0c"/>
      <rect id="Rectangle_368-2" data-name="Rectangle 368" width="0.714" height="0.961" rx="0.357" transform="translate(13.256 9.99)" fill="#0c0c0c"/>
    </g>
    <g id="Group_484" data-name="Group 484" transform="matrix(0.999, -0.035, 0.035, 0.999, 171.522, 15.482)">
      <path id="Path_435-3" data-name="Path 435" d="M3.265,2.246c0,.042,0,.084,0,.126a3,3,0,0,1-.058.483A2,2,0,0,1,1.992,4.438a1.211,1.211,0,0,1-.359.055C.731,4.492,0,3.486,0,2.246S.731,0,1.632,0c.846,0,1.541.885,1.624,2.019C3.262,2.094,3.265,2.17,3.265,2.246Z" transform="translate(19.989 4.869)" fill="#131313"/>
      <path id="Path_436-3" data-name="Path 436" d="M2.059,1.832A2.981,2.981,0,0,1,2,2.316,2,2,0,0,1,.789,3.9,2.144,2.144,0,0,1,0,1.976C0,.885.462,0,1.031,0c.478,0,.88.624,1,1.471C2.044,1.587,2.055,1.708,2.059,1.832Z" transform="translate(21.192 5.409)"/>
      <path id="Path_437-3" data-name="Path 437" d="M0,.426S4.419-.482,6.751.353c0,0,.344.172,0,.466,0,0,.325.344-.243.466l-2.255.139L0,.991Z" transform="translate(15.054 1.717)" fill="#131313"/>
      <path id="Path_438-3" data-name="Path 438" d="M0,.365S3.783-.413,5.78.3c0,0,.295.147,0,.4,0,0,.278.295-.208.4l-1.93.119L0,.849Z" transform="translate(15.828 1.893)"/>
      <path id="Path_439-3" data-name="Path 439" d="M6.186,1.817l-.295-.589s.129-.6-.921-.771A.634.634,0,0,0,4.333,0,.638.638,0,0,0,3.7.437c-.151.013-.311.031-.483.054l-.24,1.287-.03-.06s.152-.7-1.222-.807A.511.511,0,0,0,1.841.589.612.612,0,0,0,1.191.025.612.612,0,0,0,.54.589.515.515,0,0,0,.677.935Q.484.953.27.982L0,2.43,1.252,2.6,3.24,2.308l-.176-.352L4.2,2.111Z" transform="translate(13.95 1.8)" fill="#5fbd66"/>
      <path id="Path_440-3" data-name="Path 440" d="M6.186,1.817l-.295-.589s.129-.6-.921-.771A.634.634,0,0,0,4.333,0,.638.638,0,0,0,3.7.437c-.151.013-.311.031-.483.054l-.24,1.287-.03-.06s.152-.7-1.222-.807A.511.511,0,0,0,1.841.589.612.612,0,0,0,1.191.025.612.612,0,0,0,.54.589.515.515,0,0,0,.677.935Q.484.953.27.982L0,2.43,1.252,2.6,3.24,2.308l-.176-.352L4.2,2.111Z" transform="translate(13.95 1.8)" opacity="0.2"/>
      <path id="Path_441-3" data-name="Path 441" d="M.319,1.127S.123.025,1.031,0s.614,1.6.614,1.6.687.147.737.417S0,2.357,0,2.357Z" transform="translate(15.594 1.186)" fill="#5fbd66"/>
      <path id="Path_442-3" data-name="Path 442" d="M4.321,2.565A2.265,2.265,0,0,1,2.16,4.922,2.265,2.265,0,0,1,0,2.565,2.475,2.475,0,0,1,2.173,0,2.456,2.456,0,0,1,4.321,2.565Z" transform="translate(9.997 5.568)" fill="#131313"/>
      <ellipse id="Ellipse_45-3" data-name="Ellipse 45" cx="1.718" cy="1.988" rx="1.718" ry="1.988" transform="translate(10.439 6.243)"/>
      <ellipse id="Ellipse_46-3" data-name="Ellipse 46" cx="2.16" cy="2.357" rx="2.16" ry="2.357" transform="translate(0.497 5.556)" fill="#131313"/>
      <path id="Path_443-3" data-name="Path 443" d="M.959,0S-.047.049,0,.589.861.736.861.736Z" transform="translate(5.381 2.291)" fill="#36334a"/>
      <path id="Path_444-3" data-name="Path 444" d="M9.135,3.191,9.549.425s.1-.344-1.227-.344c0,0-4.247-.27-5.327.172,0,0-1.252.466-2.995,2.872C0,3.126,8.963,3.338,9.135,3.191Z" transform="translate(5.579 0)" fill="#131313"/>
      <path id="Path_445-3" data-name="Path 445" d="M8.534,0,7.773,3.019,7.3,3.008,5.037,2.953,0,2.83A25.741,25.741,0,0,1,2.371.123Z" transform="translate(6.03 0.303)"/>
      <path id="Path_446-3" data-name="Path 446" d="M0,1.922l.206-.8S.009.025.918,0s.614,1.6.614,1.6.626.134.726.381Z" transform="translate(11.068 1.333)" fill="#5fbd66" opacity="0.2"/>
      <path id="Path_447-3" data-name="Path 447" d="M23.266,4.112A1.894,1.894,0,0,0,22.2,2.381C21.314,2.332,20.725,5.7,20.725,5.7l-6.8.614s.233-2.86-1.412-3.326-2.074,2.884-2.148,3.351S.448,6.284.178,6.088.006,4,.08,3.854s.27-.81.27-.81a1.36,1.36,0,0,1,.138-.5c.044-.1.082-.166.082-.166A1.939,1.939,0,0,1,1.966.859h0A12.769,12.769,0,0,1,4.989.368l1.031-.2L14.4.337l.357.007,4.262-.2L21.9,0c.663,0,1.006,1.669,1.006,1.669A4.123,4.123,0,0,1,23.266,4.112Z" transform="translate(0 2.831)" fill="#404040"/>
      <ellipse id="Ellipse_47-3" data-name="Ellipse 47" cx="1.264" cy="0.791" rx="1.264" ry="0.791" transform="translate(7.683 4.501) rotate(-21.92)" opacity="0.1"/>
      <ellipse id="Ellipse_48-3" data-name="Ellipse 48" cx="1.264" cy="0.791" rx="1.264" ry="0.791" transform="translate(7.634 4.403) rotate(-21.92)" fill="#f2f2f2"/>
      <path id="Path_448-3" data-name="Path 448" d="M1.478,0a1.965,1.965,0,0,1-.351.939C.776,1.467.3,1.778,0,1.687c.044-.1.082-.166.082-.166A1.935,1.935,0,0,1,1.478,0Z" transform="translate(0.537 3.74)" opacity="0.1"/>
      <path id="Path_449-3" data-name="Path 449" d="M1.478,0a1.965,1.965,0,0,1-.351.939C.776,1.467.3,1.778,0,1.687c.044-.1.082-.166.082-.166A1.935,1.935,0,0,1,1.478,0Z" transform="translate(0.464 3.691)" fill="#f2f2f2"/>
      <path id="Path_450-3" data-name="Path 450" d="M2.038.27H.1L0,0H2.357Z" transform="translate(3.345 4.157)"/>
      <rect id="Rectangle_364-3" data-name="Rectangle 364" width="3.191" height="0.933" transform="translate(1.749 6.415)"/>
      <circle id="Ellipse_49-3" data-name="Ellipse 49" cx="0.442" cy="0.442" r="0.442" transform="translate(7.935 7.372)" opacity="0.1"/>
      <circle id="Ellipse_50-3" data-name="Ellipse 50" cx="0.442" cy="0.442" r="0.442" transform="translate(7.886 7.299)" fill="#f2f2f2"/>
      <ellipse id="Ellipse_51-3" data-name="Ellipse 51" cx="0.221" cy="0.466" rx="0.221" ry="0.466" transform="translate(0.129 7.004)" opacity="0.1"/>
      <ellipse id="Ellipse_52-3" data-name="Ellipse 52" cx="0.221" cy="0.466" rx="0.221" ry="0.466" transform="translate(0.055 6.98)" fill="#f2f2f2"/>
      <path id="Path_451-3" data-name="Path 451" d="M5.34,2.512a9.222,9.222,0,0,0-.295,2.136l-.1.344L.16,5.532S.185,3.126.258,2A4.582,4.582,0,0,0,0,.2L.357.2,4.618,0A2.494,2.494,0,0,1,5.34,2.512Z" transform="translate(14.403 2.97)" fill="#2a2a2a"/>
      <path id="Path_452-3" data-name="Path 452" d="M.113.066A.121.121,0,0,0,0,.206.086.086,0,0,0,.051.27,3.508,3.508,0,0,0,.858.186.136.136,0,0,0,.971.065C.974.03.961,0,.91,0Z" transform="translate(18.539 3.911)" fill="#f2f2f2"/>
      <path id="Path_453-3" data-name="Path 453" d="M0,.614A.525.525,0,0,0,.712.982l.2-.761L.515,0Z" transform="translate(14.392 2.463)" fill="#232323"/>
      <path id="Path_454-3" data-name="Path 454" d="M.243.17A.939.939,0,0,1,1.366.206a.5.5,0,0,1,.145.6c-.139.3-.468.626-1.236.236A.5.5,0,0,1,.087.879l0-.006A.5.5,0,0,1,.243.17Z" transform="translate(14.87 1.81)" fill="#232323"/>
      <circle id="Ellipse_53-3" data-name="Ellipse 53" cx="0.491" cy="0.491" r="0.491" transform="translate(11.679 7.63)" fill="#0c0c0c"/>
      <ellipse id="Ellipse_54-3" data-name="Ellipse 54" cx="0.27" cy="0.491" rx="0.27" ry="0.491" transform="translate(22.038 6.746)" fill="#0c0c0c"/>
      <rect id="Rectangle_365-3" data-name="Rectangle 365" width="0.638" height="0.859" rx="0.319" transform="translate(11.839 6.611)" fill="#0c0c0c"/>
      <path id="Path_455-3" data-name="Path 455" d="M.295,0h0A.172.172,0,0,1,.466.172V.565A.3.3,0,0,1,.172.859h0A.172.172,0,0,1,0,.687V.295A.3.3,0,0,1,.295,0Z" transform="translate(22.014 5.666)" fill="#0c0c0c"/>
      <path id="Path_456-3" data-name="Path 456" d="M.295.859h0A.3.3,0,0,1,0,.565V.295A.3.3,0,0,1,.295,0h0C.457,0,.442.133.442.295v.27C.442.727.457.859.295.859Z" transform="translate(22.014 7.949)" fill="#0c0c0c"/>
      <path id="Path_457-3" data-name="Path 457" d="M.2,0h0A.3.3,0,0,1,.491.295V.663a.2.2,0,0,1-.2.2h0A.3.3,0,0,1,0,.565V.2A.2.2,0,0,1,.2,0Z" transform="translate(21.376 6.795)" fill="#0c0c0c"/>
      <path id="Path_458-3" data-name="Path 458" d="M.4.245C.4.288.4.33.4.372A2.982,2.982,0,0,1,.344.855a.3.3,0,0,1-.049,0A.3.3,0,0,1,0,.565V.295A.295.295,0,0,1,.371.01L.4.018C.4.093.4.169.4.245Z" transform="translate(22.849 6.869)" fill="#0c0c0c"/>
      <rect id="Rectangle_366-3" data-name="Rectangle 366" width="0.638" height="0.859" rx="0.319" transform="translate(13.078 7.655)" fill="#0c0c0c"/>
      <rect id="Rectangle_367-3" data-name="Rectangle 367" width="0.638" height="0.859" rx="0.319" transform="translate(10.672 7.655)" fill="#0c0c0c"/>
      <rect id="Rectangle_368-3" data-name="Rectangle 368" width="0.638" height="0.859" rx="0.319" transform="translate(11.851 8.931)" fill="#0c0c0c"/>
    </g>
    <g id="Group_652" data-name="Group 652" transform="translate(102.098 43.468)">
      <ellipse id="Ellipse_119" data-name="Ellipse 119" cx="19.805" cy="21.548" rx="19.805" ry="21.548" transform="translate(15.541 16.503)" fill="#232323"/>
      <path id="Path_614" data-name="Path 614" d="M0,14.854l7.585-.274L7.951,0,.365.274Z" transform="translate(62.133 59.022) rotate(133)" fill="#232323"/>
      <rect id="Rectangle_507" data-name="Rectangle 507" width="7.197" height="12.881" transform="matrix(0.755, 0.656, -0.656, 0.755, 19.241, 49.079)" fill="#232323"/>
      <path id="Path_609" data-name="Path 609" d="M1.805,0c1.2.083,2.367,2.862,2.6,6.209S3.84,12.2,2.636,12.121.269,9.258.04,5.912.6-.081,1.805,0Z" transform="matrix(-0.391, -0.921, 0.921, -0.391, 56.994, 66.087)" fill="#232323"/>
      <path id="Path_610" data-name="Path 610" d="M1.882,11.789c1.151-.044,2.18-2.719,2.3-5.974S3.46-.044,2.309,0,.129,2.719.011,5.975.731,11.833,1.882,11.789Z" transform="matrix(0.259, -0.966, 0.966, 0.259, 5.727, 61.466)" fill="#232323"/>
      <path id="Path_608" data-name="Path 608" d="M616.573,491.009c1.913-7.792-4.2-15.665-13.658-17.586s-18.673,2.839-20.586,10.631,4.354,10.666,13.81,12.586S614.66,498.8,616.573,491.009Z" transform="translate(-558.245 -472.998)" fill="#5fbd66"/>
      <path id="Path_611" data-name="Path 611" d="M12.363,7.924C19.293,7.6,24.994,5.566,25.1,3.39S19.666-.283,12.736.045.1,2.4,0,4.579,5.433,8.253,12.363,7.924Z" transform="matrix(-0.695, -0.719, 0.719, -0.695, 17.435, 35.472)" fill="#232323"/>
      <path id="Path_612" data-name="Path 612" d="M11.94,8.214c6.645-.163,12.074-2.131,12.125-4.4S18.77-.152,12.125.011.051,2.142,0,4.407,5.295,8.377,11.94,8.214Z" transform="matrix(-0.921, 0.391, -0.391, -0.921, 75.959, 29.131)" fill="#232323"/>
    </g>
  </g>
</svg>
