<svg id="Group_650" data-name="Group 650" xmlns="http://www.w3.org/2000/svg" width="266.413" height="109.643" viewBox="0 0 266.413 109.643">
  <path id="Path_765" data-name="Path 765" d="M406.276,268.517H340.948v-1.346H311.326v1.346h-65.6a4.419,4.419,0,0,0-4.419,4.419h0V362.39a4.419,4.419,0,0,0,4.419,4.419H406.276a4.419,4.419,0,0,0,4.419-4.419V272.936a4.419,4.419,0,0,0-4.419-4.419Z" transform="translate(-198.169 -267.138)" fill="#232323"/>
  <rect id="Rectangle_125" data-name="Rectangle 125" width="157.535" height="88.866" transform="translate(49.066 9.188)" fill="#e6e6e6"/>
  <rect id="Rectangle_130" data-name="Rectangle 130" width="144.227" height="76.813" transform="translate(55.747 13.888)" fill="#fff"/>
  <circle id="Ellipse_120" data-name="Ellipse 120" cx="1.616" cy="1.616" r="1.616" transform="translate(126.083 3.534)" fill="#5fbd66"/>
  <path id="Path_766" data-name="Path 766" d="M395.04,647.153H379.665v-1.108a.22.22,0,0,0-.22-.22h-5.271a.22.22,0,0,0-.22.22h0v1.108H370.66v-1.108a.22.22,0,0,0-.22-.22h-5.271a.22.22,0,0,0-.22.22h0v1.108h-3.294v-1.108a.22.22,0,0,0-.22-.22h-5.271a.22.22,0,0,0-.22.22h0v1.108H352.65v-1.108a.22.22,0,0,0-.22-.22h-5.271a.22.22,0,0,0-.22.22h0v1.108h-3.295v-1.108a.22.22,0,0,0-.22-.22h-5.271a.22.22,0,0,0-.22.22h0v1.108H334.64v-1.108a.22.22,0,0,0-.22-.22h-5.27a.22.22,0,0,0-.22.22h0v1.108h-3.3v-1.108a.22.22,0,0,0-.22-.22H284.124a.22.22,0,0,0-.22.22h0v1.108H280.61v-1.108a.22.22,0,0,0-.22-.22h-5.271a.22.22,0,0,0-.22.22h0v1.108H271.6v-1.108a.22.22,0,0,0-.22-.22h-5.271a.22.22,0,0,0-.22.22h0v1.108H262.6v-1.108a.22.22,0,0,0-.22-.22h-5.271a.22.22,0,0,0-.22.22h0v1.108H253.6v-1.108a.22.22,0,0,0-.22-.22H248.1a.22.22,0,0,0-.22.22h0v1.108H244.59v-1.108a.22.22,0,0,0-.22-.22H239.1a.22.22,0,0,0-.22.22h0v1.108h-3.294v-1.108a.22.22,0,0,0-.22-.22h-5.272a.22.22,0,0,0-.22.22h0v1.108h-10.1a5.271,5.271,0,0,0-5.271,5.271v2.383a5.271,5.271,0,0,0,5.271,5.271H395.04a5.271,5.271,0,0,0,5.271-5.271v-2.383a5.271,5.271,0,0,0-5.271-5.271Z" transform="translate(-178.091 -550.714)" fill="#232323"/>
  <rect id="Rectangle_126" data-name="Rectangle 126" width="63.778" height="67.043" transform="translate(95.971 19.275)" fill="#e6e6e6"/>
  <rect id="Rectangle_128" data-name="Rectangle 128" width="266.413" height="0.502" transform="translate(0 109.141)" fill="#e6e6e6"/>
  <path id="Path_776" data-name="Path 776" d="M999.795,618.53c3.61,3.873,3.8,9.567,3.8,9.567s-5.666-.587-9.276-4.461-3.8-9.567-3.8-9.567S996.184,614.657,999.795,618.53Z" transform="translate(-759.255 -526.932)" fill="#5fbd66"/>
  <path id="Path_777" data-name="Path 777" d="M1044.177,628.248c-3.873,3.61-9.567,3.8-9.567,3.8s.587-5.666,4.46-9.276,9.567-3.8,9.567-3.8S1048.051,624.638,1044.177,628.248Z" transform="translate(-792.275 -530.603)" fill="#5fbd66"/>
  <path id="Path_778" data-name="Path 778" d="M1012.789,673.988H998.542a1.456,1.456,0,0,1-1.31-.82l-3.1-6.376a1.456,1.456,0,0,1,1.31-2.095h20.451a1.456,1.456,0,0,1,1.31,2.095l-3.1,6.376a1.457,1.457,0,0,1-1.311.82Z" transform="translate(-761.849 -564.848)" fill="#c4c923"/>
  <path id="Path_779" data-name="Path 779" d="M102.792,618.53c3.61,3.873,3.8,9.567,3.8,9.567s-5.666-.587-9.276-4.461-3.8-9.567-3.8-9.567S99.182,614.657,102.792,618.53Z" transform="translate(-87.486 -526.932)" fill="#5fbd66"/>
  <path id="Path_780" data-name="Path 780" d="M106.789,673.988H92.542a1.456,1.456,0,0,1-1.31-.82l-3.1-6.376a1.456,1.456,0,0,1,1.31-2.095h20.451a1.456,1.456,0,0,1,1.31,2.095l-3.1,6.376a1.456,1.456,0,0,1-1.31.82Z" transform="translate(-83.341 -564.848)" fill="#c4c923"/>
  <path id="Path_138" data-name="Path 138" d="M83.458,22.057,6.221,39.889a1.47,1.47,0,0,1-1.76-1.1L.038,19.63a1.47,1.47,0,0,1,1.1-1.76L78.374.038a1.47,1.47,0,0,1,1.761,1.1L84.558,20.3A1.47,1.47,0,0,1,83.458,22.057Z" transform="translate(23.931 0) rotate(13)" fill="#fff"/>
  <path id="Path_138-2" data-name="Path 138" d="M83.458,22.057,6.221,39.889a1.47,1.47,0,0,1-1.76-1.1L.038,19.63a1.47,1.47,0,0,1,1.1-1.76L78.374.038a1.47,1.47,0,0,1,1.761,1.1L84.558,20.3A1.47,1.47,0,0,1,83.458,22.057ZM1.27,18.441A.882.882,0,0,0,.61,19.5L5.033,38.657a.882.882,0,0,0,1.056.66L83.326,21.485a.882.882,0,0,0,.66-1.056L79.563,1.27A.882.882,0,0,0,78.506.61Z" transform="translate(23.931 0) rotate(13)" fill="#232323"/>
  <path id="Path_139" data-name="Path 139" d="M.774,10.594a1,1,0,0,0,.445,1.943h0L47,1.968A1,1,0,0,0,46.552.026Z" transform="translate(48.775 13.728) rotate(13)" fill="#e6e6e6"/>
  <path id="Path_140" data-name="Path 140" d="M.774,4.574a1,1,0,1,0,.445,1.943h0l19.7-4.548A1,1,0,0,0,20.476.025h0Z" transform="translate(47.421 25.574) rotate(13)" fill="#e6e6e6"/>
  <g id="Group_45" data-name="Group 45" transform="translate(28.911 20.995) rotate(13)">
    <circle id="Ellipse_18" data-name="Ellipse 18" cx="5.98" cy="5.98" r="5.98" fill="#5fbd66"/>
    <path id="Path_395" data-name="Path 395" d="M3.549,7.494a.926.926,0,0,1-.585-.055l-.011-.005L.547,6.341a.933.933,0,1,1,.773-1.7l1.559.71L5.066.546A.932.932,0,0,1,6.3.084h0L6.287.115,6.3.084a.933.933,0,0,1,.462,1.235L4.191,6.972a.933.933,0,0,1-.641.521Z" transform="translate(2.262 1.935)" fill="#fff"/>
  </g>
  <ellipse id="Ellipse_120-2" data-name="Ellipse 120" cx="17.519" cy="21.867" rx="17.519" ry="21.867" transform="translate(110.614 36.835)" fill="#232323"/>
  <rect id="Rectangle_508" data-name="Rectangle 508" width="7.304" height="11.01" transform="translate(131.785 75.863)" fill="#232323"/>
  <rect id="Rectangle_509" data-name="Rectangle 509" width="7.304" height="11.01" transform="translate(117.177 75.863)" fill="#232323"/>
  <path id="Path_615" data-name="Path 615" d="M617.086,491.276c1.941-7.907-4.264-15.9-13.861-17.846s-18.949,2.881-20.891,10.789,4.418,10.824,14.015,12.773S615.144,499.183,617.086,491.276Z" transform="translate(-467.846 -451.432)" fill="#5fbd66"/>
  <path id="Path_616" data-name="Path 616" d="M12.546,8.042c7.033-.333,12.819-2.393,12.923-4.6S19.958-.287,12.925.046.106,2.439,0,4.647,5.513,8.375,12.546,8.042Z" transform="matrix(-0.707, -0.707, 0.707, -0.707, 111.329, 58.32)" fill="#232323"/>
  <path id="Path_617" data-name="Path 617" d="M12.117,8.335c6.744-.165,12.252-2.163,12.3-4.461S19.048-.154,12.3.011.052,2.174,0,4.472,5.373,8.5,12.117,8.335Z" transform="translate(156.775 72.013) rotate(-131)" fill="#232323"/>
  <rect id="Rectangle_126-2" data-name="Rectangle 126" width="63.778" height="4.999" transform="translate(95.971 85.75)" fill="#fff"/>
</svg>
