<svg xmlns="http://www.w3.org/2000/svg" width="202.971" height="123.645" viewBox="0 0 202.971 123.645">
  <g id="Group_844" data-name="Group 844" transform="translate(0)">
    <g id="Group_825" data-name="Group 825" transform="translate(0)">
      <path id="Path_680" data-name="Path 680" d="M269.7,512.285c-1.618-2.994.223-6.662,2.326-9.331s4.679-5.445,4.623-8.847c-.08-4.888-5.267-7.773-9.411-10.365a45.957,45.957,0,0,1-8.451-6.793,12.342,12.342,0,0,1-2.6-3.478,14.117,14.117,0,0,1-.778-6.178q.267-10.472,1.034-20.9" transform="translate(-226.384 -401.937)" fill="none" stroke="#232323" stroke-miterlimit="10" stroke-width="4"/>
      <path id="Path_682" data-name="Path 682" d="M282.842,637.542a7.62,7.62,0,0,0,14.391-3.119,7.522,7.522,0,0,0-.5-3.092,7.624,7.624,0,0,0-14.259.082l4.761,3.872L282,634.066A7.537,7.537,0,0,0,282.842,637.542Z" transform="translate(-247.067 -541.878)" fill="#c4c923"/>
      <path id="Path_688" data-name="Path 688" d="M285.78,654.572a7.62,7.62,0,0,0,14.391-3.119,7.522,7.522,0,0,0-.5-3.092A7.631,7.631,0,0,0,298,649.85a29.313,29.313,0,0,1-2.041,2.709,9.612,9.612,0,0,1-6.314,2.228A32.707,32.707,0,0,1,285.78,654.572Z" transform="translate(-250.005 -558.908)" opacity="0.1"/>
      <path id="Path_683" data-name="Path 683" d="M277.35,556.661a7.624,7.624,0,0,0,2.417-14.954l.04,3.139-1.716-3.416h-.02a7.625,7.625,0,0,0-.711,15.233Z" transform="translate(-237.812 -475.796)" fill="#c4c923"/>
      <ellipse id="Ellipse_127" data-name="Ellipse 127" cx="101.485" cy="4.679" rx="101.485" ry="4.679" transform="translate(0 114.287)" fill="rgba(35,35,35,0.1)"/>
      <path id="Path_689" data-name="Path 689" d="M236.143,542.707l-29.41,6.016-.668-.067-25.845-2.607V513.3l31.638-5.347,22.948,2.674.007.145,0,.071Z" transform="translate(-140.067 -427.907)" fill="#5fbd66"/>
      <path id="Path_690" data-name="Path 690" d="M326.3,552.538l-29.41,6.016-.668-.067V524.911l28.748-4.311Z" transform="translate(-230.222 -437.738)" opacity="0.1"/>
      <path id="Path_692" data-name="Path 692" d="M381.143,548.707l-29.41,6.016-.668-.067-25.845-2.607V519.3l31.638-5.347,22.948,2.674.007.145,0,.071Z" transform="translate(-252.761 -432.57)" fill="#ea4542"/>
      <path id="Path_669" data-name="Path 669" d="M938.758,678.71c.669-1.228-.089-2.731-.954-3.828s-1.918-2.228-1.9-3.629c.031-2.005,2.159-3.188,3.861-4.251a18.894,18.894,0,0,0,3.464-2.787,5.077,5.077,0,0,0,1.067-1.426,5.819,5.819,0,0,0,.318-2.536q-.111-4.291-.423-8.573" transform="translate(-755.285 -561.488)" fill="#232323" stroke="#232323" stroke-miterlimit="10" stroke-width="4"/>
      <path id="Path_670" data-name="Path 670" d="M965.806,640.594a3.133,3.133,0,0,0-1.56-2.562l-.7,1.386.02-1.675a3.126,3.126,0,1,0,2.228,2.852Z" transform="translate(-773.661 -550.554)" fill="#c4c923"/>
      <path id="Path_671" data-name="Path 671" d="M942.035,730.138a3.119,3.119,0,1,1,.149-2.518l-1.952,1.589,2.148-.5A3.123,3.123,0,0,1,942.035,730.138Z" transform="translate(-755.467 -618.932)" fill="#c4c923"/>
      <path id="Path_672" data-name="Path 672" d="M944.252,696.9a3.119,3.119,0,0,1-3.266-2.979,3.075,3.075,0,0,1,.269-1.424,3.133,3.133,0,0,1,2.005-1.733l-.016,1.29.709-1.4h0a3.128,3.128,0,0,1,.292,6.25Z" transform="translate(-759.228 -591.771)" fill="#c4c923"/>
      <path id="Path_673" data-name="Path 673" d="M978.324,674.225a3.123,3.123,0,1,1,1.381-5.842l-.552,1.515,1.136-1.092a3.119,3.119,0,0,1,1.012,2.159,3.047,3.047,0,0,1-.08.86A3.119,3.119,0,0,1,978.324,674.225Z" transform="translate(-785.709 -574.159)" fill="#c4c923"/>
      <path id="Path_674" data-name="Path 674" d="M965.506,647.371c-.722.08-1.424.305-2.148.35a2.337,2.337,0,0,1-1.978-.693,9.894,9.894,0,0,1-.579-1.016,2.227,2.227,0,0,0-.786-.742,3.119,3.119,0,1,0,5.846,2.076C965.74,647.351,965.622,647.36,965.506,647.371Z" transform="translate(-773.783 -556.507)" opacity="0.1"/>
      <path id="Path_675" data-name="Path 675" d="M978.3,680.456A3.119,3.119,0,0,1,975.323,676a2.316,2.316,0,0,1,.628.631,10.07,10.07,0,0,0,.619,1.034,2.55,2.55,0,0,0,2.074.724c.755-.036,1.482-.247,2.228-.316.1,0,.209-.018.314-.02A3.119,3.119,0,0,1,978.3,680.456Z" transform="translate(-785.683 -580.39)" opacity="0.1"/>
      <path id="Path_676" data-name="Path 676" d="M944.252,703.353a3.119,3.119,0,0,1-3.266-2.979,3.075,3.075,0,0,1,.269-1.424,2.566,2.566,0,0,1,.669.635c.243.343.394.737.668,1.054a2.888,2.888,0,0,0,2.215.775c.8-.02,1.52-.207,2.29-.265a3.132,3.132,0,0,1-2.845,2.2Z" transform="translate(-759.228 -598.227)" opacity="0.1"/>
      <path id="Path_677" data-name="Path 677" d="M941.741,737.062a3.125,3.125,0,1,1-5.7-2.562,3.249,3.249,0,0,1,.686.613,12.3,12.3,0,0,0,.838,1.114,3.892,3.892,0,0,0,2.589.909A13.4,13.4,0,0,0,941.741,737.062Z" transform="translate(-755.173 -625.856)" opacity="0.1"/>
      <path id="Path_678" data-name="Path 678" d="M927.54,762s2.466-.076,3.211-.606,3.788-1.163,3.981-.312,3.71,4.233.922,4.247-6.475-.446-7.217-.891S927.54,762,927.54,762Z" transform="translate(-748.781 -646.188)" fill="#232323" stroke="#232323" stroke-width="1"/>
      <path id="Path_679" data-name="Path 679" d="M935.7,769.651c-2.785.022-6.475-.446-7.217-.891-.564-.343-.791-1.58-.864-2.15h-.082s.156,1.99.891,2.451,4.429.909,7.216.891c.8,0,1.083-.294,1.067-.717C936.61,769.486,936.3,769.647,935.7,769.651Z" transform="translate(-748.781 -650.812)" opacity="0.2"/>
      <path id="Path_681" data-name="Path 681" d="M224.731,419.353a7.622,7.622,0,0,1,3.805-6.238l1.707,3.375-.051-4.086a7.624,7.624,0,1,1-5.461,6.956Z" transform="translate(-202.551 -375.281)" fill="#c4c923"/>
      <path id="Path_684" data-name="Path 684" d="M194.233,501.39a7.624,7.624,0,1,0-3.369-14.259l1.337,3.692-2.76-2.667a7.589,7.589,0,0,0-2.473,5.263,7.435,7.435,0,0,0,.194,2.1A7.622,7.622,0,0,0,194.233,501.39Z" transform="translate(-173.201 -432.839)" fill="#c4c923"/>
      <path id="Path_685" data-name="Path 685" d="M226.321,435.924c1.76.194,3.471.74,5.236.849a5.692,5.692,0,0,0,4.821-1.684,23.775,23.775,0,0,0,1.41-2.482,5.41,5.41,0,0,1,1.921-1.807,7.624,7.624,0,1,1-14.259,5.06C225.746,435.873,226.036,435.893,226.321,435.924Z" transform="translate(-203.117 -389.82)" opacity="0.1"/>
      <path id="Path_733" data-name="Path 733" d="M1.052-7.563,9.73-6.89V26.405l-8.656-.948Z" transform="translate(47.084 93.485)" fill="#fefefe"/>
      <path id="Path_686" data-name="Path 686" d="M194.973,516.623a7.629,7.629,0,0,0,7.252-10.873,5.639,5.639,0,0,0-1.533,1.533,24.721,24.721,0,0,1-1.511,2.52,6.24,6.24,0,0,1-5.055,1.769c-1.84-.082-3.616-.608-5.447-.775-.254-.022-.512-.04-.769-.047A7.622,7.622,0,0,0,194.973,516.623Z" transform="translate(-173.94 -448.072)" opacity="0.1"/>
      <path id="Path_687" data-name="Path 687" d="M278.491,572.382A7.622,7.622,0,0,0,285.8,561.65a6.165,6.165,0,0,0-1.611,1.56,26.148,26.148,0,0,1-1.655,2.569,7.047,7.047,0,0,1-5.4,1.892c-1.887-.04-3.705-.5-5.581-.648A7.628,7.628,0,0,0,278.491,572.382Z" transform="translate(-238.953 -491.517)" opacity="0.1"/>
      <path id="Path_740" data-name="Path 740" d="M1.147-7.945,9.8-7.187V26.108L1.147,25.16Z" transform="translate(77.311 95.119)" fill="#fefefe"/>
      <g id="Group_833" data-name="Group 833" transform="translate(48.116 82.266)">
        <path id="Path_752" data-name="Path 752" d="M-8.448-8.991-5-8.311-17.825-4.974l-4.213-.341Z" transform="translate(22.038 8.991)" fill="#fff"/>
      </g>
      <path id="Path_691" data-name="Path 691" d="M234.815,510.84l-.009.007-28.741,4.233L180.22,513.3l31.638-5.347,22.948,2.674.007.145Z" transform="translate(-140.067 -427.907)" opacity="0.05"/>
      <path id="Path_751" data-name="Path 751" d="M-.059-8.25,9.029-9.61V23.145l-8.8,1.847Z" transform="translate(109.218 95.077)" fill="#fefefe"/>
      <path id="Path_693" data-name="Path 693" d="M471.3,558.538l-29.41,6.016-.668-.067V530.911l28.748-4.311Z" transform="translate(-342.916 -442.402)" opacity="0.2"/>
      <path id="Path_694" data-name="Path 694" d="M379.815,516.84l-.009.007-28.741,4.233L325.22,519.3l31.638-5.347,22.948,2.674.007.145Z" transform="translate(-252.761 -432.57)" opacity="0.05"/>
      <path id="Path_698" data-name="Path 698" d="M458.407,468.83l-15.349,3.142-.35-.036-13.488-1.361V453.482l16.512-2.792,11.978,1.4,0,.076v.036Z" transform="translate(-333.59 -383.404)" fill="#ea4542"/>
      <path id="Path_755" data-name="Path 755" d="M-7.246-9.672l3.454.408L-17.622-6.59-21.97-6.9Z" transform="translate(122.314 77.278)" fill="#fff"/>
      <path id="Path_699" data-name="Path 699" d="M505.458,473.968l-15.349,3.141-.35-.036V459.55l15.006-2.25Z" transform="translate(-380.642 -388.542)" opacity="0.2"/>
      <path id="Path_754" data-name="Path 754" d="M12.422-1.831l-4.05.63-12.7-1.211,3.861-.707Z" transform="translate(106.508 71.411)" fill="#fff"/>
      <path id="Path_748" data-name="Path 748" d="M.72-4.542l5.464.334V10.953L.72,10.477Z" transform="translate(99.125 77.158)" fill="#fefefe"/>
      <path id="Path_732" data-name="Path 732" d="M290.143,404.707l-29.41,6.016-.668-.067-25.845-2.607V375.3l31.638-5.347,22.948,2.674.007.145,0,.071Z" transform="translate(-185.155 -319.317)" fill="#ea4542"/>
      <g id="Group_827" data-name="Group 827" transform="translate(56.375 51.293)">
        <path id="Path_753" data-name="Path 753" d="M31-.334,21.867,1.172-3.647-1.063,4.809-2.23Z" transform="translate(7.73 3.736)" fill="#fff"/>
        <path id="Path_752-2" data-name="Path 752" d="M6.946-8.991l7.338,1.021L-13.028-2.965-21.97-3.6Z" transform="translate(21.97 8.991)" fill="#fff"/>
      </g>
      <path id="Path_701" data-name="Path 701" d="M273.407,319.83l-15.349,3.139-.35-.033-13.488-1.361V304.482l16.512-2.792,11.978,1.4,0,.076v.036Z" transform="translate(-189.808 -267.602)" fill="#ea4542"/>
      <path id="Path_702" data-name="Path 702" d="M320.458,324.968l-15.349,3.139-.35-.033V310.55l15.006-2.25Z" transform="translate(-236.86 -272.739)" opacity="0.2"/>
      <path id="Path_703" data-name="Path 703" d="M272.714,303.2l0,0-15,2.21-13.488-.931,16.512-2.792,11.978,1.4,0,.076Z" transform="translate(-189.808 -267.602)" opacity="0.05"/>
      <path id="Path_704" data-name="Path 704" d="M394.407,316.83l-15.349,3.139-.35-.033-13.488-1.361V301.482l16.512-2.792,11.978,1.4,0,.076v.036Z" transform="translate(-283.849 -265.27)" fill="#5fbd66"/>
      <path id="Path_762" data-name="Path 762" d="M11.671-1.939l-4.05.63L-5.3-2.591l3.914-.668Z" transform="translate(66.486 38.322)" fill="#fff"/>
      <path id="Path_763" data-name="Path 763" d="M-11.377-9.672l3.454.408-13.89,2.707-5.471-.38Z" transform="translate(85.671 44.08)" fill="#fff"/>
      <path id="Path_705" data-name="Path 705" d="M441.458,321.968l-15.349,3.139-.35-.033V307.55l15.006-2.25Z" transform="translate(-330.901 -270.407)" opacity="0.1"/>
      <path id="Path_706" data-name="Path 706" d="M393.714,300.2l0,0-15,2.21-13.488-.931,16.512-2.792,11.978,1.4,0,.076Z" transform="translate(-283.849 -265.27)" opacity="0.05"/>
      <path id="Path_764" data-name="Path 764" d="M11.671-1.939l-4.05.63L-5.3-2.591l3.914-.668Z" transform="translate(93.222 37.653)" fill="#fff"/>
      <path id="Path_765" data-name="Path 765" d="M-11.377-9.672l3.454.408-13.89,2.707-5.471-.38Z" transform="translate(112.407 43.412)" fill="#fff"/>
      <path id="Path_737" data-name="Path 737" d="M0,.486,3.936,0l.285,16.317-3.93.874Z" transform="matrix(1, 0.017, -0.017, 1, 101.594, 36.082)" fill="#e4e4e4"/>
      <path id="Path_738" data-name="Path 738" d="M.719-4.542l5.464.334L6.116,13.138l-5.4-.531Z" transform="translate(84.422 41.065)" fill="#fefefe"/>
      <path id="Path_707" data-name="Path 707" d="M430.407,239.83l-15.349,3.139-.35-.033-13.488-1.361V224.482l16.512-2.792,11.978,1.4,0,.076v.036Z" transform="translate(-311.828 -205.426)" fill="#ea4542"/>
      <path id="Path_708" data-name="Path 708" d="M477.458,244.968l-15.349,3.139-.35-.033V230.55l15.006-2.25Z" transform="translate(-358.88 -210.563)" opacity="0.2"/>
      <path id="Path_709" data-name="Path 709" d="M429.714,223.2l0,0-15,2.21-13.488-.931,16.512-2.792,11.978,1.4,0,.076Z" transform="translate(-311.828 -205.426)" opacity="0.05"/>
      <path id="Path_743" data-name="Path 743" d="M0,.486,3.936,0l.285,16.317-3.93.874Z" transform="matrix(1, 0.017, -0.017, 1, 73.299, 36.75)" fill="#e4e4e4"/>
      <path id="Path_725" data-name="Path 725" d="M303.407,242.83l-15.349,3.139-.35-.033-13.488-1.361V227.482l16.512-2.792,11.978,1.4,0,.076v.036Z" transform="translate(-213.124 -207.757)" fill="#5fbd66"/>
      <path id="Path_726" data-name="Path 726" d="M350.458,247.968l-15.349,3.139-.35-.033V233.55l15.006-2.25Z" transform="translate(-260.176 -212.895)" opacity="0.1"/>
      <path id="Path_758" data-name="Path 758" d="M11.671-1.939l-4.05.63L-5.3-2.591l3.914-.668Z" transform="translate(101.02 20.498)" fill="#fff"/>
      <path id="Path_759" data-name="Path 759" d="M-11.377-9.672l3.454.408-13.89,2.707-5.471-.38Z" transform="translate(120.205 26.256)" fill="#fff"/>
      <path id="Path_727" data-name="Path 727" d="M302.714,226.2l0,0-15,2.21-13.488-.931,16.512-2.792,11.978,1.4,0,.076Z" transform="translate(-213.124 -207.757)" opacity="0.05"/>
      <path id="Path_760" data-name="Path 760" d="M11.671-1.939l-4.05.63L-5.3-2.591l3.914-.668Z" transform="translate(73.17 21.166)" fill="#fff"/>
      <path id="Path_761" data-name="Path 761" d="M-11.377-9.672l3.454.408-13.89,2.707-5.471-.38Z" transform="translate(92.355 26.925)" fill="#fff"/>
      <path id="Path_736" data-name="Path 736" d="M0,.486,3.936,0l.285,16.317-3.93.874Z" transform="matrix(1, 0.017, -0.017, 1, 80.874, 19.818)" fill="#e4e4e4"/>
      <path id="Path_728" data-name="Path 728" d="M339.407,166.83l-15.349,3.141-.35-.036-13.488-1.361V151.482l16.512-2.792,11.978,1.4,0,.076v.036Z" transform="translate(-241.103 -148.69)" fill="#ea4542"/>
      <path id="Path_729" data-name="Path 729" d="M386.458,171.968l-15.349,3.141-.35-.036V157.55l15.006-2.25Z" transform="translate(-288.155 -153.827)" opacity="0.2"/>
      <path id="Path_730" data-name="Path 730" d="M338.714,150.2l0,0-15,2.21-13.488-.931,16.512-2.792,11.978,1.4,0,.076Z" transform="translate(-241.103 -148.69)" opacity="0.05"/>
      <path id="Path_742" data-name="Path 742" d="M.72-4.542l5.464.383v17.4L.72,12.692Z" transform="translate(57.685 41.676)" fill="#fefefe"/>
      <path id="Path_735" data-name="Path 735" d="M.72-4.542l5.464.383v17.4L.72,12.692Z" transform="translate(64.369 24.521)" fill="#fefefe"/>
      <path id="Path_739" data-name="Path 739" d="M.931-7.945l8.917.64L9.54,25.761.869,24.877Z" transform="translate(55.47 64.596)" fill="#fefefe"/>
      <path id="Path_744" data-name="Path 744" d="M0,.628,3.861,0l.3,17.123L.3,17.934Z" transform="matrix(1, 0.017, -0.017, 1, 108.842, 18.482)" fill="#e4e4e4"/>
      <path id="Path_745" data-name="Path 745" d="M.72-4.542l5.464.383v17.4L.72,12.692Z" transform="translate(92.219 23.852)" fill="#fefefe"/>
      <path id="Path_746" data-name="Path 746" d="M0,.624,4.06,0,4.5,17.048l-3.93.874Z" transform="matrix(1, 0.017, -0.017, 1, 88.624, 2.149)" fill="#e4e4e4"/>
      <path id="Path_747" data-name="Path 747" d="M.72-4.542l5.464.383v17.4L.72,12.692Z" transform="translate(72.389 7.588)" fill="#fefefe"/>
      <path id="Path_749" data-name="Path 749" d="M0,.7,3.933,0l.251,17.063L.3,17.934Z" transform="matrix(1, 0.017, -0.017, 1, 114.966, 69.509)" fill="#e4e4e4"/>
      <path id="Path_750" data-name="Path 750" d="M-.059-8.25,9.029-9.61V23.145l-8.8,1.847Z" transform="translate(86.046 64.33)" fill="#fefefe"/>
    </g>
    <g id="Group_826" data-name="Group 826" transform="translate(128.239 66.454)">
      <ellipse id="Ellipse_119" data-name="Ellipse 119" cx="12.773" cy="15.37" rx="12.773" ry="15.37" transform="translate(13 12.484)" fill="#232323"/>
      <rect id="Rectangle_506" data-name="Rectangle 506" width="5.07" height="8.366" transform="translate(27.24 39.204)" fill="#232323"/>
      <rect id="Rectangle_507" data-name="Rectangle 507" width="5.07" height="8.366" transform="translate(17.1 39.204)" fill="#232323"/>
      <path id="Path_609" data-name="Path 609" d="M1.36,8.337C2.178,8.311,2.9,6.424,2.966,4.122S2.429-.026,1.611,0,.075,1.914.005,4.216.543,8.363,1.36,8.337Z" transform="translate(24.123 48.792) rotate(-90)" fill="#232323"/>
      <path id="Path_610" data-name="Path 610" d="M1.358,8.323C2.177,8.3,2.9,6.411,2.972,4.113S2.439-.027,1.62,0,.078,1.913.006,4.211.539,8.35,1.358,8.323Z" transform="translate(13.889 48.675) rotate(-90)" fill="#232323"/>
      <path id="Path_608" data-name="Path 608" d="M606.351,485.845c1.348-5.558-2.96-11.174-9.622-12.544s-13.154,2.025-14.5,7.584,3.067,7.608,9.729,8.978S605,491.4,606.351,485.845Z" transform="translate(-565.457 -472.997)" fill="#5fbd66"/>
      <path id="Path_611" data-name="Path 611" d="M8.749,5.627c4.9-.207,8.917-1.629,8.982-3.175S13.879-.182,8.983.025.065,1.654,0,3.2,3.853,5.834,8.749,5.627Z" transform="translate(15.356 25.906) rotate(-150)" fill="#232323"/>
      <path id="Path_612" data-name="Path 612" d="M8.518,5.789c4.736-.1,8.6-1.476,8.632-3.073S13.368-.094,8.632.006.032,1.482,0,3.079,3.782,5.889,8.518,5.789Z" transform="matrix(-0.257, -0.967, 0.967, -0.257, 39.9, 41.841)" fill="#232323"/>
    </g>
    <path id="Path_741" data-name="Path 741" d="M474.268,559.051,445.31,565h0l.391-33.754,27.215-4.262Z" transform="translate(-369.266 -473.672)" opacity="0.2"/>
    <path id="Path_756" data-name="Path 756" d="M11.671-1.939l-4.05.63L-5.3-2.591l3.914-.668Z" transform="translate(81.191 4.233)" fill="#fff"/>
    <path id="Path_757" data-name="Path 757" d="M-11.377-9.672l3.454.408-13.89,2.707-5.471-.38Z" transform="translate(100.376 9.992)" fill="#fff"/>
  </g>
</svg>