<svg xmlns="http://www.w3.org/2000/svg" width="19.18" height="19.18" viewBox="0 0 19.18 19.18">
  <path id="iconmonstr-instagram-13" d="M12.174,4.386c-.674-.03-.877-.037-2.584-.037s-1.909.006-2.583.037A2.4,2.4,0,0,0,4.387,7.006c-.031.675-.038.877-.038,2.584s.007,1.909.038,2.584a2.4,2.4,0,0,0,2.621,2.621c.674.03.877.038,2.584.038s1.91-.006,2.584-.037a2.4,2.4,0,0,0,2.621-2.621c.03-.675.037-.877.037-2.584s-.006-1.909-.037-2.583a2.4,2.4,0,0,0-2.621-2.622ZM9.59,12.873A3.283,3.283,0,1,1,12.873,9.59,3.283,3.283,0,0,1,9.59,12.873ZM13,6.945a.767.767,0,1,1,.767-.767A.767.767,0,0,1,13,6.945ZM11.722,9.59A2.131,2.131,0,1,1,9.59,7.459,2.131,2.131,0,0,1,11.722,9.59ZM15.184,0H4A4,4,0,0,0,0,4V15.184a4,4,0,0,0,4,4H15.184a4,4,0,0,0,4-4V4A4,4,0,0,0,15.184,0Zm.761,12.226a3.53,3.53,0,0,1-3.719,3.719c-.683.031-.9.038-2.637.038s-1.953-.007-2.636-.038a3.53,3.53,0,0,1-3.719-3.719c-.031-.682-.038-.9-.038-2.636s.007-1.954.038-2.636A3.529,3.529,0,0,1,6.955,3.236c.683-.032.9-.039,2.636-.039s1.954.007,2.637.038a3.529,3.529,0,0,1,3.719,3.719c.031.683.038.9.038,2.637S15.976,11.544,15.945,12.226Z" fill="#5fbd66"/>
</svg>
