<svg xmlns="http://www.w3.org/2000/svg" width="13.333" height="16" viewBox="0 0 13.333 16">
  <path id="iconmonstr-accessibility-2" d="M8.652,11.333c-.632.007-1.019.6-1.319,1.072-.643,1.023-1.34,2.107-1.939,3.019A1,1,0,0,1,4.581,16a.605.605,0,0,1-.518-.843c.487-1.026,2.6-4.718,2.6-7.823C6.667,6.258,6.095,6,5.333,6H2.667a.667.667,0,0,1,0-1.333h12a.667.667,0,1,1,0,1.333H12c-.761,0-1.333.258-1.333,1.333,0,3.105,2.117,6.8,2.6,7.823a.605.605,0,0,1-.518.843,1,1,0,0,1-.813-.575c-.6-.912-1.3-2-1.94-3.019-.3-.478-.692-1.074-1.333-1.072ZM8.667,0a2,2,0,1,1-2,2,2,2,0,0,1,2-2" transform="translate(-2)" fill="#232323" fill-rule="evenodd"/>
</svg>
