<svg xmlns="http://www.w3.org/2000/svg" width="47.833" height="57" viewBox="0 0 47.833 57">
  <path id="iconmonstr-accessibility-2" d="M24.866,38.958c-2.172.025-3.5,2.053-4.533,3.685-2.211,3.518-4.606,7.244-6.666,10.379-.715,1.089-1.49,1.969-2.794,1.978a2.081,2.081,0,0,1-1.781-2.9c1.675-3.527,8.949-16.218,8.949-26.893,0-3.7-1.966-4.583-4.583-4.583H4.292a2.292,2.292,0,0,1,0-4.583h41.25a2.292,2.292,0,1,1,0,4.583H36.375c-2.615,0-4.583.887-4.583,4.583,0,10.675,7.276,23.366,8.951,26.893A2.081,2.081,0,0,1,38.962,55c-1.3-.009-2.081-.889-2.794-1.978-2.06-3.135-4.455-6.861-6.669-10.379-1.034-1.643-2.379-3.692-4.583-3.685ZM24.917,0a6.875,6.875,0,1,1-6.875,6.875A6.876,6.876,0,0,1,24.917,0" transform="translate(-1 1)" fill="none" stroke="#30373a" stroke-width="2" fill-rule="evenodd"/>
</svg>