<svg id="Group_633" data-name="Group 633" xmlns="http://www.w3.org/2000/svg" width="18.556" height="18.556" viewBox="0 0 18.556 18.556">
  <path id="iconmonstr-square-3" d="M18.556,3.866A3.866,3.866,0,0,0,14.69,0H3.866A3.866,3.866,0,0,0,0,3.866V14.69a3.866,3.866,0,0,0,3.866,3.866H14.69a3.866,3.866,0,0,0,3.866-3.866Z" fill="#5fbd66"/>
  <path id="iconmonstr-globe-3" d="M6.7,0a6.7,6.7,0,1,0,6.7,6.7A6.7,6.7,0,0,0,6.7,0Zm.559,8.971V7.263H8.936a10.349,10.349,0,0,1-.255,1.832,13.552,13.552,0,0,0-1.418-.124Zm1.093,1.208A6.67,6.67,0,0,1,7.263,12.11V10.087C7.635,10.1,8,10.132,8.356,10.179ZM7.263,6.146V4.461a13.507,13.507,0,0,0,1.424-.125,10.328,10.328,0,0,1,.249,1.81Zm0-2.8V1.3a6.681,6.681,0,0,1,1.1,1.953C8.005,3.3,7.638,3.329,7.263,3.344Zm1.51-1.825a5.6,5.6,0,0,1,1.838,1.2,9.736,9.736,0,0,1-1.128.339,8.56,8.56,0,0,0-.71-1.538ZM4.728,9.095a10.3,10.3,0,0,1-.255-1.832H6.146V8.971A13.552,13.552,0,0,0,4.728,9.095Zm1.418.992V12.11a6.67,6.67,0,0,1-1.093-1.931C5.409,10.132,5.773,10.1,6.146,10.087ZM4.473,6.146a10.275,10.275,0,0,1,.249-1.81,13.507,13.507,0,0,0,1.424.125V6.146Zm.572-2.893A6.692,6.692,0,0,1,6.146,1.3V3.344C5.771,3.329,5.4,3.3,5.045,3.252Zm-1.12-.2A9.693,9.693,0,0,1,2.8,2.717a5.608,5.608,0,0,1,1.838-1.2,8.637,8.637,0,0,0-.711,1.538ZM3.618,4.128a11.386,11.386,0,0,0-.275,2.017h-2.2a5.545,5.545,0,0,1,.9-2.524A10.652,10.652,0,0,0,3.618,4.128ZM3.623,9.3a10.721,10.721,0,0,0-1.563.5,5.544,5.544,0,0,1-.915-2.543h2.2A11.367,11.367,0,0,0,3.623,9.3Zm.309,1.071a8.58,8.58,0,0,0,.7,1.515,5.593,5.593,0,0,1-1.819-1.182A9.83,9.83,0,0,1,3.932,10.374Zm5.544,0a9.864,9.864,0,0,1,1.117.334,5.621,5.621,0,0,1-1.82,1.182A8.646,8.646,0,0,0,9.476,10.374ZM9.785,9.3a11.367,11.367,0,0,0,.28-2.04h2.2a5.551,5.551,0,0,1-.915,2.543A10.743,10.743,0,0,0,9.785,9.3Zm.28-3.157A11.438,11.438,0,0,0,9.79,4.128a10.659,10.659,0,0,0,1.569-.507,5.551,5.551,0,0,1,.9,2.524h-2.2Z" transform="translate(2.385 2.385)" fill="#f6f6f6"/>
</svg>
