<svg id="Group_1675" data-name="Group 1675" xmlns="http://www.w3.org/2000/svg" width="165.908" height="113.048" viewBox="0 0 165.908 113.048">
  <g id="Group_825" data-name="Group 825">
    <path id="Path_680" data-name="Path 680" d="M267.085,506.638c-1.322-2.738.182-6.091,1.9-8.531s3.824-4.979,3.779-8.089c-.066-4.469-4.305-7.107-7.693-9.476a38.675,38.675,0,0,1-6.908-6.211,11.28,11.28,0,0,1-2.123-3.18,14.334,14.334,0,0,1-.636-5.649q.219-9.574.845-19.112" transform="translate(-231.68 -405.747)" fill="none" stroke="#232323" stroke-miterlimit="10" stroke-width="4"/>
    <path id="Path_682" data-name="Path 682" d="M282.688,636.591a6.041,6.041,0,0,0,6.861,3.628,6.794,6.794,0,0,0,4.9-6.48,7.618,7.618,0,0,0-.406-2.827,6.023,6.023,0,0,0-11.655.075l3.892,3.54L282,633.413A7.56,7.56,0,0,0,282.688,636.591Z" transform="translate(-253.446 -549.127)" fill="#c4c923"/>
    <path id="Path_688" data-name="Path 688" d="M285.78,654.039a6.04,6.04,0,0,0,6.861,3.628,6.794,6.794,0,0,0,4.9-6.48,7.619,7.619,0,0,0-.406-2.827,6.535,6.535,0,0,0-1.366,1.363A26.765,26.765,0,0,1,294.1,652.2a7.364,7.364,0,0,1-5.161,2.037A23.929,23.929,0,0,1,285.78,654.039Z" transform="translate(-256.538 -566.575)" opacity="0.1"/>
    <path id="Path_683" data-name="Path 683" d="M276.025,555.355c3.163.162,5.931-2.355,6.437-5.851A7.032,7.032,0,0,0,278,541.682l.033,2.87-1.4-3.123h-.016c-3.438-.18-6.356,2.793-6.516,6.639s2.5,7.109,5.935,7.289Z" transform="translate(-243.707 -481.421)" fill="#c4c923"/>
    <ellipse id="Ellipse_127" data-name="Ellipse 127" cx="82.954" cy="4.278" rx="82.954" ry="4.278" transform="translate(0 104.492)" fill="rgba(35,35,35,0.1)"/>
    <path id="Path_689" data-name="Path 689" d="M225.931,539.728l-24.039,5.5-.546-.061-21.126-2.383V512.839l25.861-4.889,18.758,2.444.005.132,0,.065Z" transform="translate(-147.399 -434.767)" fill="#5fbd66"/>
    <path id="Path_690" data-name="Path 690" d="M320.806,549.8l-24.039,5.5-.546-.061v-30.7l23.5-3.942Z" transform="translate(-242.273 -444.84)" opacity="0.1"/>
    <path id="Path_692" data-name="Path 692" d="M370.931,545.728l-24.039,5.5-.546-.061-21.126-2.383V518.839l25.861-4.889,18.758,2.444.005.132,0,.065Z" transform="translate(-265.992 -439.545)" fill="red"/>
    <path id="Path_669" data-name="Path 669" d="M938.238,676.393c.546-1.122-.073-2.5-.779-3.5s-1.568-2.037-1.55-3.318c.025-1.833,1.765-2.915,3.156-3.887a15.9,15.9,0,0,0,2.832-2.548,4.64,4.64,0,0,0,.872-1.3,5.911,5.911,0,0,0,.26-2.318q-.091-3.923-.346-7.839" transform="translate(-788.267 -569.219)" fill="#232323" stroke="#232323" stroke-miterlimit="10" stroke-width="4"/>
    <path id="Path_670" data-name="Path 670" d="M964.664,640.338A2.926,2.926,0,0,0,963.389,638l-.572,1.267.016-1.532a2.339,2.339,0,0,0-2.305.488,3,3,0,0,0-.973,2.388,2.682,2.682,0,0,0,2.67,2.717,2.751,2.751,0,0,0,2.429-2.986Z" transform="translate(-807.605 -558.015)" fill="#c4c923"/>
    <path id="Path_671" data-name="Path 671" d="M940.959,729.749a2.46,2.46,0,0,1-2.94,1.445,2.841,2.841,0,0,1-1.872-2.919,2.75,2.75,0,0,1,2.167-2.651,2.531,2.531,0,0,1,2.767,1.824l-1.6,1.453,1.755-.456A3.127,3.127,0,0,1,940.959,729.749Z" transform="translate(-788.458 -628.074)" fill="#c4c923"/>
    <path id="Path_672" data-name="Path 672" d="M943.655,696.362a2.394,2.394,0,0,1-1.841-.741,3,3,0,0,1-.829-1.982,3.1,3.1,0,0,1,.22-1.3,2.669,2.669,0,0,1,1.639-1.585l-.013,1.18.579-1.283h0a2.687,2.687,0,0,1,2.673,2.724,2.756,2.756,0,0,1-2.435,2.99Z" transform="translate(-792.417 -600.246)" fill="#c4c923"/>
    <path id="Path_673" data-name="Path 673" d="M977.727,673.69a2.682,2.682,0,0,1-2.67-2.717,2.751,2.751,0,0,1,2.43-2.986,2.319,2.319,0,0,1,1.37.363l-.452,1.385.929-1a3,3,0,0,1,.827,1.974,3.107,3.107,0,0,1-.066.786A2.643,2.643,0,0,1,977.727,673.69Z" transform="translate(-820.284 -582.201)" fill="#c4c923"/>
    <path id="Path_674" data-name="Path 674" d="M964.448,647.191c-.59.073-1.164.279-1.756.32a1.8,1.8,0,0,1-1.617-.634,9.392,9.392,0,0,1-.473-.929,1.924,1.924,0,0,0-.643-.678,3.131,3.131,0,0,0,.3,3,2.409,2.409,0,0,0,2.547,1.012,2.709,2.709,0,0,0,1.929-2.117C964.639,647.173,964.543,647.181,964.448,647.191Z" transform="translate(-807.733 -564.114)" opacity="0.1"/>
    <path id="Path_675" data-name="Path 675" d="M977.7,680.074a2.475,2.475,0,0,1-2.25-1.265,3.143,3.143,0,0,1-.182-2.809,2.022,2.022,0,0,1,.514.576,9.5,9.5,0,0,0,.506.945,1.958,1.958,0,0,0,1.7.662c.617-.033,1.211-.226,1.821-.289.084,0,.171-.016.257-.018A2.645,2.645,0,0,1,977.7,680.074Z" transform="translate(-820.256 -588.584)" opacity="0.1"/>
    <path id="Path_676" data-name="Path 676" d="M943.655,702.975a2.394,2.394,0,0,1-1.841-.741,3,3,0,0,1-.829-1.982,3.1,3.1,0,0,1,.22-1.3,2.221,2.221,0,0,1,.547.581c.2.314.322.674.546.964a2.216,2.216,0,0,0,1.81.709c.654-.018,1.242-.189,1.872-.242a2.629,2.629,0,0,1-2.326,2.015Z" transform="translate(-792.417 -606.859)" opacity="0.1"/>
    <path id="Path_677" data-name="Path 677" d="M940.649,736.843a2.453,2.453,0,0,1-3.377,1.435,3,3,0,0,1-1.283-3.778,2.778,2.778,0,0,1,.561.56,11.306,11.306,0,0,0,.685,1.018,2.981,2.981,0,0,0,2.116.831A9.806,9.806,0,0,0,940.649,736.843Z" transform="translate(-788.149 -635.168)" opacity="0.1"/>
    <path id="Path_678" data-name="Path 678" d="M927.54,761.881a6.687,6.687,0,0,0,2.624-.554c.608-.485,3.1-1.063,3.254-.285s3.032,3.87.754,3.883-5.292-.407-5.9-.815S927.54,761.881,927.54,761.881Z" transform="translate(-781.423 -656)" fill="#232323" stroke="#232323" stroke-width="1"/>
    <path id="Path_679" data-name="Path 679" d="M934.213,769.391c-2.276.02-5.292-.407-5.9-.815-.461-.314-.647-1.444-.707-1.966h-.067s.127,1.819.728,2.241,3.621.831,5.9.815c.657,0,.885-.269.872-.656C934.954,769.24,934.7,769.386,934.213,769.391Z" transform="translate(-781.423 -660.737)" opacity="0.2"/>
    <path id="Path_681" data-name="Path 681" d="M224.729,418.73a7.117,7.117,0,0,1,3.111-5.7l1.4,3.086-.042-3.736a5.912,5.912,0,0,1,6.919,2.774,7.644,7.644,0,0,1-.256,8.217,5.838,5.838,0,0,1-7.075,2.229,7.025,7.025,0,0,1-4.052-6.86Z" transform="translate(-206.599 -378.436)" fill="#c4c923"/>
    <path id="Path_684" data-name="Path 684" d="M192.9,500.083a6.235,6.235,0,0,0,6.079-4.344,7.542,7.542,0,0,0-1.658-7.852,5.72,5.72,0,0,0-7.174-.841l1.093,3.375-2.256-2.438a7.3,7.3,0,0,0-2.021,4.811,7.577,7.577,0,0,0,.158,1.919A6.461,6.461,0,0,0,192.9,500.083Z" transform="translate(-175.713 -437.408)" fill="#c4c923"/>
    <path id="Path_685" data-name="Path 685" d="M226.162,435.485c1.439.177,2.837.676,4.28.776a4.375,4.375,0,0,0,3.941-1.54,22.543,22.543,0,0,0,1.153-2.269,4.672,4.672,0,0,1,1.57-1.652,7.654,7.654,0,0,1-.664,7.429,5.889,5.889,0,0,1-6.29,2.5,6.649,6.649,0,0,1-4.7-5.3C225.692,435.438,225.929,435.457,226.162,435.485Z" transform="translate(-207.195 -393.333)" opacity="0.1"/>
    <path id="Path_733" data-name="Path 733" d="M1.052-7.563l7.093.615V23.494l-7.076-.866Z" transform="translate(38.295 86.121)" fill="#fefefe"/>
    <path id="Path_686" data-name="Path 686" d="M193.683,515.691a6.056,6.056,0,0,0,5.475-3.1,7.688,7.688,0,0,0,.453-6.844,4.92,4.92,0,0,0-1.253,1.4,23.293,23.293,0,0,1-1.235,2.3,4.792,4.792,0,0,1-4.132,1.617c-1.5-.075-2.956-.556-4.453-.709-.208-.02-.419-.037-.628-.043A6.462,6.462,0,0,0,193.683,515.691Z" transform="translate(-176.491 -453.015)" opacity="0.1"/>
    <path id="Path_687" data-name="Path 687" d="M277.226,571.462a6.042,6.042,0,0,0,5.441-3.037,7.678,7.678,0,0,0,.536-6.775,5.349,5.349,0,0,0-1.317,1.426,24.39,24.39,0,0,1-1.353,2.349,5.408,5.408,0,0,1-4.411,1.729c-1.543-.037-3.029-.46-4.562-.593a6.4,6.4,0,0,0,5.666,4.9Z" transform="translate(-244.907 -497.528)" opacity="0.1"/>
    <path id="Path_740" data-name="Path 740" d="M1.147-7.945l7.076.693V23.189l-7.076-.866Z" transform="translate(62.985 87.648)" fill="#fefefe"/>
    <g id="Group_833" data-name="Group 833" transform="translate(39.33 75.215)">
      <path id="Path_752" data-name="Path 752" d="M-10.929-8.991l2.816.622L-18.594-5.318l-3.444-.311Z" transform="translate(22.038 8.991)" fill="#fff"/>
    </g>
    <path id="Path_691" data-name="Path 691" d="M224.846,510.592l-.007.006-23.493,3.87-21.126-1.63,25.861-4.889,18.758,2.444.005.132Z" transform="translate(-147.399 -434.767)" opacity="0.05"/>
    <path id="Path_751" data-name="Path 751" d="M-.059-8.366,7.37-9.61V20.338L.18,22.026Z" transform="translate(89.285 87.751)" fill="#fefefe"/>
    <path id="Path_693" data-name="Path 693" d="M465.806,555.8l-24.039,5.5-.546-.061v-30.7l23.5-3.942Z" transform="translate(-360.867 -449.618)" opacity="0.2"/>
    <path id="Path_694" data-name="Path 694" d="M369.846,516.592l-.007.006-23.493,3.87-21.126-1.63,25.861-4.889,18.758,2.444.005.132Z" transform="translate(-265.992 -439.545)" opacity="0.05"/>
    <path id="Path_698" data-name="Path 698" d="M453.077,467.276l-12.546,2.872-.286-.033-11.025-1.245V453.242l13.5-2.552,9.791,1.277,0,.069v.033Z" transform="translate(-351.052 -389.171)" fill="red"/>
    <path id="Path_755" data-name="Path 755" d="M-9.935-9.672l2.823.373-11.3,2.444-3.554-.281Z" transform="translate(103.991 71.483)" fill="#fff"/>
    <path id="Path_699" data-name="Path 699" d="M502.592,472.539l-12.546,2.872-.286-.033V459.357l12.266-2.057Z" transform="translate(-400.567 -394.435)" opacity="0.2"/>
    <path id="Path_754" data-name="Path 754" d="M9.362-1.941l-3.31.576L-4.332-2.473l3.156-.646Z" transform="translate(87.851 65.557)" fill="#fff"/>
    <path id="Path_748" data-name="Path 748" d="M.72-4.542l4.466.305V9.625L.72,9.19Z" transform="translate(80.894 70.934)" fill="#fefefe"/>
    <path id="Path_732" data-name="Path 732" d="M279.931,401.728l-24.039,5.5-.546-.061-21.126-2.383V374.839l25.861-4.889,18.758,2.444.005.132,0,.065Z" transform="translate(-194.114 -323.656)" fill="red"/>
    <g id="Group_827" data-name="Group 827" transform="translate(46.081 46.897)">
      <path id="Path_753" data-name="Path 753" d="M24.676-.5,17.208.881-3.647-1.163,3.265-2.23Z" transform="translate(6.984 3.607)" fill="#fff"/>
      <path id="Path_752-2" data-name="Path 752" d="M1.666-8.991l6,.933L-14.661-3.482l-7.309-.578Z" transform="translate(21.97 8.991)" fill="#fff"/>
    </g>
    <path id="Path_701" data-name="Path 701" d="M268.077,318.276l-12.546,2.87-.286-.031-11.025-1.245V304.242l13.5-2.552,9.791,1.277,0,.069v.033Z" transform="translate(-199.744 -270.523)" fill="red"/>
    <path id="Path_702" data-name="Path 702" d="M317.592,323.539l-12.546,2.87-.286-.031V310.357l12.266-2.057Z" transform="translate(-249.258 -275.787)" opacity="0.2"/>
    <path id="Path_703" data-name="Path 703" d="M267.511,303.069l0,0-12.262,2.021-11.025-.851,13.5-2.552,9.791,1.277,0,.069Z" transform="translate(-199.744 -270.523)" opacity="0.05"/>
    <path id="Path_704" data-name="Path 704" d="M389.077,315.276l-12.546,2.87-.286-.031-11.025-1.245V301.242l13.5-2.552,9.791,1.277,0,.069v.033Z" transform="translate(-298.707 -268.134)" fill="#5fbd66"/>
    <path id="Path_762" data-name="Path 762" d="M8.573-2.052l-3.31.576L-5.3-2.648l3.2-.61Z" transform="translate(55.313 35.317)" fill="#fff"/>
    <path id="Path_763" data-name="Path 763" d="M-14.282-9.672l2.823.373L-22.812-6.823l-4.472-.347Z" transform="translate(75.01 41.131)" fill="#fff"/>
    <path id="Path_705" data-name="Path 705" d="M438.592,320.539l-12.546,2.87-.286-.031V307.357l12.266-2.057Z" transform="translate(-348.222 -273.398)" opacity="0.1"/>
    <path id="Path_706" data-name="Path 706" d="M388.511,300.069l0,0-12.262,2.021-11.025-.852,13.5-2.552,9.791,1.277,0,.069Z" transform="translate(-298.707 -268.134)" opacity="0.05"/>
    <path id="Path_764" data-name="Path 764" d="M8.573-2.052l-3.31.576L-5.3-2.648l3.2-.61Z" transform="translate(77.167 34.705)" fill="#fff"/>
    <path id="Path_765" data-name="Path 765" d="M-14.282-9.672l2.823.373L-22.812-6.823l-4.472-.347Z" transform="translate(96.864 40.52)" fill="#fff"/>
    <path id="Path_737" data-name="Path 737" d="M0,.438,3.217,0l.26,14.919-3.211.792Z" transform="matrix(1, 0.017, -0.017, 1, 83.044, 32.996)" fill="#e4e4e4"/>
    <path id="Path_738" data-name="Path 738" d="M.719-4.542l4.466.305L5.13,11.623.718,11.137Z" transform="translate(68.875 37.934)" fill="#fefefe"/>
    <path id="Path_707" data-name="Path 707" d="M425.077,238.276l-12.546,2.87-.286-.031-11.025-1.245V224.242l13.5-2.552,9.791,1.277,0,.069v.033Z" transform="translate(-328.151 -206.82)" fill="red"/>
    <path id="Path_708" data-name="Path 708" d="M474.592,243.539l-12.546,2.87-.286-.031V230.357l12.266-2.057Z" transform="translate(-377.666 -212.083)" opacity="0.2"/>
    <path id="Path_709" data-name="Path 709" d="M424.511,223.069l0,0-12.262,2.021-11.025-.851,13.5-2.552,9.791,1.277,0,.069Z" transform="translate(-328.151 -206.82)" opacity="0.05"/>
    <path id="Path_743" data-name="Path 743" d="M0,.438,3.217,0l.26,14.919-3.211.792Z" transform="matrix(1, 0.017, -0.017, 1, 59.915, 33.607)" fill="#e4e4e4"/>
    <path id="Path_725" data-name="Path 725" d="M298.077,241.276l-12.546,2.87-.286-.031-11.025-1.245V227.242l13.5-2.552,9.791,1.277,0,.069v.033Z" transform="translate(-224.28 -209.208)" fill="#5fbd66"/>
    <path id="Path_726" data-name="Path 726" d="M347.592,246.539l-12.546,2.87-.286-.031V233.357l12.266-2.057Z" transform="translate(-273.795 -214.472)" opacity="0.1"/>
    <path id="Path_758" data-name="Path 758" d="M8.573-2.052l-3.31.576L-5.3-2.648l3.2-.61Z" transform="translate(83.541 19.02)" fill="#fff"/>
    <path id="Path_759" data-name="Path 759" d="M-14.282-9.672l2.823.373L-22.812-6.823l-4.472-.347Z" transform="translate(103.238 24.835)" fill="#fff"/>
    <path id="Path_727" data-name="Path 727" d="M297.511,226.069l0,0-12.262,2.021-11.025-.851,13.5-2.552,9.791,1.277,0,.069Z" transform="translate(-224.28 -209.208)" opacity="0.05"/>
    <path id="Path_760" data-name="Path 760" d="M8.573-2.052l-3.31.576L-5.3-2.648l3.2-.61Z" transform="translate(60.777 19.631)" fill="#fff"/>
    <path id="Path_761" data-name="Path 761" d="M-14.282-9.672l2.823.373L-22.812-6.823l-4.472-.347Z" transform="translate(80.473 25.446)" fill="#fff"/>
    <path id="Path_736" data-name="Path 736" d="M0,.438,3.217,0l.26,14.919-3.211.792Z" transform="matrix(1, 0.017, -0.017, 1, 66.107, 18.126)" fill="#e4e4e4"/>
    <path id="Path_728" data-name="Path 728" d="M334.077,165.276l-12.546,2.872-.286-.033-11.025-1.245V151.242l13.5-2.552,9.791,1.277,0,.069v.033Z" transform="translate(-253.724 -148.69)" fill="red"/>
    <path id="Path_729" data-name="Path 729" d="M383.592,170.539l-12.546,2.872-.286-.033V157.357l12.266-2.057Z" transform="translate(-303.238 -153.954)" opacity="0.2"/>
    <path id="Path_730" data-name="Path 730" d="M333.511,150.069l0,0-12.262,2.021-11.025-.851,13.5-2.552,9.791,1.277,0,.069Z" transform="translate(-253.724 -148.69)" opacity="0.05"/>
    <path id="Path_742" data-name="Path 742" d="M.72-4.542l4.466.35V11.714l-4.466-.5Z" transform="translate(47.02 38.494)" fill="#fefefe"/>
    <path id="Path_735" data-name="Path 735" d="M.72-4.542l4.466.35V11.714l-4.466-.5Z" transform="translate(52.483 22.808)" fill="#fefefe"/>
    <path id="Path_739" data-name="Path 739" d="M.92-7.945l7.289.585L7.957,22.872.869,22.063Z" transform="translate(45.183 59.74)" fill="#fefefe"/>
    <path id="Path_744" data-name="Path 744" d="M0,.568,3.155,0l.273,15.655L.276,16.39Z" transform="matrix(1, 0.017, -0.017, 1, 88.968, 16.904)" fill="#e4e4e4"/>
    <path id="Path_745" data-name="Path 745" d="M.72-4.542l4.466.35V11.714l-4.466-.5Z" transform="translate(75.248 22.197)" fill="#fefefe"/>
    <path id="Path_746" data-name="Path 746" d="M0,.564,3.318,0,3.71,15.587.5,16.379Z" transform="matrix(1, 0.017, -0.017, 1, 72.442, 1.972)" fill="#e4e4e4"/>
    <path id="Path_747" data-name="Path 747" d="M.72-4.542l4.466.35V11.714l-4.466-.5Z" transform="translate(59.04 7.327)" fill="#fefefe"/>
    <path id="Path_749" data-name="Path 749" d="M0,.635,3.214,0l.234,15.6-3.172.79Z" transform="matrix(1, 0.017, -0.017, 1, 93.974, 63.558)" fill="#e4e4e4"/>
    <path id="Path_750" data-name="Path 750" d="M-.059-8.366,7.37-9.61V20.338L.18,22.026Z" transform="translate(70.345 59.64)" fill="#fefefe"/>
  </g>
  <g id="Group_826" data-name="Group 826" transform="translate(104.562 60.758)">
    <ellipse id="Ellipse_119" data-name="Ellipse 119" cx="10.44" cy="14.053" rx="10.44" ry="14.053" transform="translate(10.887 11.414)" fill="#232323"/>
    <rect id="Rectangle_506" data-name="Rectangle 506" width="4.144" height="7.649" transform="translate(22.527 35.844)" fill="#232323"/>
    <rect id="Rectangle_507" data-name="Rectangle 507" width="4.144" height="7.649" transform="translate(14.238 35.844)" fill="#232323"/>
    <path id="Path_609" data-name="Path 609" d="M1.244,6.815c.748-.021,1.4-1.564,1.468-3.446S2.221-.021,1.473,0,.068,1.564,0,3.446.5,6.836,1.244,6.815Z" transform="translate(19.979 44.61) rotate(-90)" fill="#232323"/>
    <path id="Path_610" data-name="Path 610" d="M1.241,6.8c.749-.022,1.41-1.563,1.476-3.442S2.23-.022,1.481,0,.072,1.563.005,3.442.492,6.826,1.241,6.8Z" transform="translate(11.614 44.504) rotate(-90)" fill="#232323"/>
    <path id="Path_608" data-name="Path 608" d="M601.9,484.744c1.1-5.082-2.42-10.217-7.865-11.469s-10.752,1.852-11.854,6.934,2.507,6.956,7.952,8.208S600.8,489.826,601.9,484.744Z" transform="translate(-568.214 -472.997)" fill="#5fbd66"/>
    <path id="Path_611" data-name="Path 611" d="M7.465,4.976C11.577,5,14.9,3.9,14.891,2.527S11.538.021,7.426,0-.011,1.076,0,2.45,3.353,4.955,7.465,4.976Z" transform="translate(12.896 23.272) rotate(-150)" fill="#232323"/>
    <path id="Path_612" data-name="Path 612" d="M7.8,4.762c4.3.031,7.773-1.009,7.763-2.324S12.061.032,7.763,0-.01,1.01,0,2.325,3.5,4.731,7.8,4.762Z" transform="matrix(-0.257, -0.967, 0.967, -0.257, 33.061, 38.129)" fill="#232323"/>
  </g>
  <path id="Path_741" data-name="Path 741" d="M468.981,556.3l-23.67,5.442h0l.32-30.861,22.246-3.9Z" transform="translate(-383.152 -478.242)" opacity="0.2"/>
  <path id="Path_756" data-name="Path 756" d="M8.573-2.052l-3.31.576L-5.3-2.648l3.2-.61Z" transform="translate(67.333 4.15)" fill="#fff"/>
  <path id="Path_757" data-name="Path 757" d="M-14.282-9.672l2.823.373L-22.812-6.823l-4.472-.347Z" transform="translate(87.03 9.965)" fill="#fff"/>
</svg>
