<svg xmlns="http://www.w3.org/2000/svg" width="13.851" height="13.851" viewBox="0 0 13.851 13.851">
  <path id="iconmonstr-user-2" d="M12.017,10.443c-1.985-.458-3.833-.86-2.937-2.55C11.8,2.75,9.8,0,6.925,0,3.992,0,2.04,2.856,4.772,7.894c.922,1.7-1,2.1-2.937,2.55C.115,10.84,0,11.68,0,13.134l0,.716H1.154c0-1.809-.072-2.049,1.061-2.31,1.645-.379,3.2-.738,3.766-1.994a2.391,2.391,0,0,0-.2-2.2C4.6,5.152,4.3,3.253,4.964,2.135a2.443,2.443,0,0,1,3.905-.02c.664,1.1.369,3.012-.81,5.238a2.407,2.407,0,0,0-.179,2.2c.571,1.251,2.139,1.612,3.8,2,1.084.252,1.016.509,1.016,2.3h1.151l0-.716C13.851,11.68,13.736,10.84,12.017,10.443Z" fill="#fefefe"/>
</svg>
